<svg viewBox="0 0 221 132" xmlns="http://www.w3.org/2000/svg" xmlns:xlink="http://www.w3.org/1999/xlink"><style>:root&gt;svg{display:none}:root&gt;svg:target{display:block}</style><svg fill="none" viewBox="0 0 40 40" id="Ellipse_22" xmlns="http://www.w3.org/2000/svg"><g filter="url(#afilter0_d_360_173)"><circle cx="20" cy="15" r="5" fill="#fff"/></g><defs><filter id="afilter0_d_360_173" x="0" y="0" width="40" height="40" filterUnits="userSpaceOnUse" color-interpolation-filters="sRGB"><feFlood flood-opacity="0" result="BackgroundImageFix"/><feColorMatrix in="SourceAlpha" values="0 0 0 0 0 0 0 0 0 0 0 0 0 0 0 0 0 0 127 0" result="hardAlpha"/><feOffset dy="5"/><feGaussianBlur stdDeviation="7.5"/><feComposite in2="hardAlpha" operator="out"/><feColorMatrix values="0 0 0 0 0.129412 0 0 0 0 0.176471 0 0 0 0 0.333333 0 0 0 0.15 0"/><feBlend in2="BackgroundImageFix" result="effect1_dropShadow_360_173"/><feBlend in="SourceGraphic" in2="effect1_dropShadow_360_173" result="shape"/></filter></defs></svg><svg fill="none" viewBox="0 0 221 132" id="Subtract" xmlns="http://www.w3.org/2000/svg"><g filter="url(#bfilter0_d_360_168)"><path fill-rule="evenodd" clip-rule="evenodd" d="M25.262 10.975c-5.523 0-10 4.477-10 10v30.052c5.968.578 10.61 5.013 10.61 10.398 0 5.386-4.642 9.82-10.61 10.398v30.053c0 5.523 4.477 10 10 10h170.31c5.523 0 10-4.477 10-10V20.975c0-5.523-4.477-10-10-10H25.262z" fill="#fff"/></g><defs><filter id="bfilter0_d_360_168" x=".262" y=".975" width="220.312" height="130.901" filterUnits="userSpaceOnUse" color-interpolation-filters="sRGB"><feFlood flood-opacity="0" result="BackgroundImageFix"/><feColorMatrix in="SourceAlpha" values="0 0 0 0 0 0 0 0 0 0 0 0 0 0 0 0 0 0 127 0" result="hardAlpha"/><feOffset dy="5"/><feGaussianBlur stdDeviation="7.5"/><feComposite in2="hardAlpha" operator="out"/><feColorMatrix values="0 0 0 0 0.129412 0 0 0 0 0.176471 0 0 0 0 0.333333 0 0 0 0.1 0"/><feBlend in2="BackgroundImageFix" result="effect1_dropShadow_360_168"/><feBlend in="SourceGraphic" in2="effect1_dropShadow_360_168" result="shape"/></filter></defs></svg><svg fill="none" viewBox="0 0 120 109" id="Subtract_(2)" xmlns="http://www.w3.org/2000/svg"><g filter="url(#cfilter0_d_360_6550)"><path fill-rule="evenodd" clip-rule="evenodd" d="M30 15c-5.523 0-10 4.477-10 10v17.39c2.509.394 4.46 3.427 4.46 7.11 0 3.683-1.951 6.716-4.46 7.11V74c0 5.523 4.477 10 10 10h60c5.523 0 10-4.477 10-10V25c0-5.523-4.477-10-10-10H30z" fill="#fff"/></g><defs><filter id="cfilter0_d_360_6550" x="0" y="0" width="120" height="109" filterUnits="userSpaceOnUse" color-interpolation-filters="sRGB"><feFlood flood-opacity="0" result="BackgroundImageFix"/><feColorMatrix in="SourceAlpha" values="0 0 0 0 0 0 0 0 0 0 0 0 0 0 0 0 0 0 127 0" result="hardAlpha"/><feOffset dy="5"/><feGaussianBlur stdDeviation="10"/><feComposite in2="hardAlpha" operator="out"/><feColorMatrix values="0 0 0 0 0.129412 0 0 0 0 0.176471 0 0 0 0 0.333333 0 0 0 0.2 0"/><feBlend in2="BackgroundImageFix" result="effect1_dropShadow_360_6550"/><feBlend in="SourceGraphic" in2="effect1_dropShadow_360_6550" result="shape"/></filter></defs></svg><svg fill="none" viewBox="0 0 45 45" id="brickwall" xmlns="http://www.w3.org/2000/svg"><g clip-path="url(#dclip0_360_6759)" fill="#212D55"><path d="M.75 45.087h36a.75.75 0 00.75-.75v-6.75h5.25a.75.75 0 00.75-.75v-7.5a.75.75 0 00-.75-.75H37.5v-6.75a.75.75 0 00-.75-.75h-1.376a1.735 1.735 0 00-.307-1.404l-3.389-4.518 1.565-1.174a2.593 2.593 0 001.035-2.222l-.076-1.35c-.02-.367.144-.719.437-.939l1.565-1.173.658.877a.75.75 0 001.05.15L44.1 4.692a2.25 2.25 0 00.45-3.15l-.417-.556a2.252 2.252 0 00-3.15-.449L34.796 5.18a.75.75 0 00-.15 1.05l.658.878-1.565 1.174a2.591 2.591 0 00-1.034 2.221l.075 1.35c.02.367-.143.72-.437.94l-1.564 1.173-3.39-4.517a1.74 1.74 0 00-1.526-.702 1.664 1.664 0 00-1.346.874l-6.162 11.467H.75a.75.75 0 00-.75.75v7.5c0 .414.336.75.75.75H6v6H.75a.75.75 0 00-.75.75v7.5c0 .414.336.75.75.75zm41.133-43.35a.75.75 0 011.05.15l.417.556a.75.75 0 01-.15 1.05l-5.588 4.192-1.317-1.756 5.588-4.192zM13.5 37.587H24v6H13.5v-6zm6-7.5H30v6H19.5v-6zm16.5 13.5H25.5v-6H36v6zm6-7.5H31.5v-6H42v6zm-6-7.5H25.5V24.22l7.677-1.633H36v6zM25.84 10.33a.157.157 0 01.136-.088h.015c.08.001.153.04.198.106l3.389 4.517-3.094 2.321a.75.75 0 00.9 1.2l3.094-2.32 3.39 4.517a.243.243 0 01.04.235.157.157 0 01-.122.106l-14.88 3.165a.244.244 0 01-.238-.102.24.24 0 01-.03-.257l7.201-13.4zm-8.371 14.557c.4.55 1.085.811 1.75.669L24 24.539v4.048H13.5v-6h4.048l-.232.433a1.724 1.724 0 00.153 1.867zm-15.969.7H3a.75.75 0 100-1.5H1.5v-1.5H12v6H1.5v-3zm6 4.5H18v6H7.5v-6zm-6 7.5H12v6H1.5v-6z"/><path d="M9.75 24.837a.75.75 0 00-.75-.75H6a.75.75 0 000 1.5h3a.75.75 0 00.75-.75z"/></g><defs><clipPath id="dclip0_360_6759"><path fill="#fff" d="M0 0h45v45H0z"/></clipPath></defs></svg><svg fill="none" viewBox="0 0 45 45" id="building" xmlns="http://www.w3.org/2000/svg"><g clip-path="url(#eclip0_360_6570)" fill="#212D55"><path d="M44.25 43.5h-4.5V18.75A.75.75 0 0039 18H28.5V.75a.75.75 0 00-.75-.75H8.25a.75.75 0 00-.75.75V43.5H.75a.75.75 0 000 1.5h43.5a.75.75 0 000-1.5zm-28.5 0h-3v-6.75a.75.75 0 01.75-.75H15a.75.75 0 01.75.75v6.75zm3-24.75V43.5h-1.5v-6.75A2.25 2.25 0 0015 34.5h-1.5a2.25 2.25 0 00-2.25 2.25v6.75H9v-42h18V18h-7.5a.75.75 0 00-.75.75zm19.5 24.75h-18v-24h18v24z"/><path d="M24 10.5h-4.5a.75.75 0 00-.75.75v4.5c0 .414.336.75.75.75H24a.75.75 0 00.75-.75v-4.5a.75.75 0 00-.75-.75zm-.75 4.5h-3v-3h3v3zM24 3h-4.5a.75.75 0 00-.75.75v4.5c0 .414.336.75.75.75H24a.75.75 0 00.75-.75v-4.5A.75.75 0 0024 3zm-.75 4.5h-3v-3h3v3zm-6.75 3H12a.75.75 0 00-.75.75v4.5c0 .414.336.75.75.75h4.5a.75.75 0 00.75-.75v-4.5a.75.75 0 00-.75-.75zm-.75 4.5h-3v-3h3v3zm.75-12H12a.75.75 0 00-.75.75v4.5c0 .414.336.75.75.75h4.5a.75.75 0 00.75-.75v-4.5A.75.75 0 0016.5 3zm-.75 4.5h-3v-3h3v3zM16.5 18H12a.75.75 0 00-.75.75v4.5c0 .414.336.75.75.75h4.5a.75.75 0 00.75-.75v-4.5a.75.75 0 00-.75-.75zm-.75 4.5h-3v-3h3v3zm.75 3H12a.75.75 0 00-.75.75v4.5c0 .414.336.75.75.75h4.5a.75.75 0 00.75-.75v-4.5a.75.75 0 00-.75-.75zm-.75 4.5h-3v-3h3v3zm15 4.5h4.5a.75.75 0 00.75-.75v-4.5a.75.75 0 00-.75-.75h-4.5a.75.75 0 00-.75.75v4.5c0 .414.336.75.75.75zm.75-4.5h3v3h-3v-3zm-.75-3h4.5a.75.75 0 00.75-.75v-4.5a.75.75 0 00-.75-.75h-4.5a.75.75 0 00-.75.75v4.5c0 .414.336.75.75.75zm.75-4.5h3v3h-3v-3zM30.75 42h4.5a.75.75 0 00.75-.75v-4.5a.75.75 0 00-.75-.75h-4.5a.75.75 0 00-.75.75v4.5c0 .414.336.75.75.75zm.75-4.5h3v3h-3v-3zm-8.25-3h4.5a.75.75 0 00.75-.75v-4.5a.75.75 0 00-.75-.75h-4.5a.75.75 0 00-.75.75v4.5c0 .414.336.75.75.75zM24 30h3v3h-3v-3zm-.75-3h4.5a.75.75 0 00.75-.75v-4.5a.75.75 0 00-.75-.75h-4.5a.75.75 0 00-.75.75v4.5c0 .414.336.75.75.75zm.75-4.5h3v3h-3v-3zM23.25 42h4.5a.75.75 0 00.75-.75v-4.5a.75.75 0 00-.75-.75h-4.5a.75.75 0 00-.75.75v4.5c0 .414.336.75.75.75zm.75-4.5h3v3h-3v-3z"/></g><defs><clipPath id="eclip0_360_6570"><path fill="#fff" d="M0 0h45v45H0z"/></clipPath></defs></svg><svg fill="none" viewBox="0 0 45 45" id="key" xmlns="http://www.w3.org/2000/svg"><path d="M29.042 43.784a.608.608 0 01-.444-.192l-2.919-3.113a.608.608 0 01-.164-.416v-1.476a.607.607 0 01.213-.463l1.034-.883-.951-1.01a.608.608 0 01-.013-.82l1.001-1.132-.844-.909a.608.608 0 01-.017-.81l.902-1.051-1.105-.913a.61.61 0 01-.221-.47v-3.653a7.629 7.629 0 116.7.106v13.337a.608.608 0 01-.13.376l-2.564 3.26a.607.607 0 01-.454.232h-.024zm-2.31-3.962l2.27 2.421L31 39.706V26.181a.609.609 0 01.38-.564 6.423 6.423 0 10-5.011-.085.608.608 0 01.365.556v3.754l1.36 1.123a.607.607 0 01.074.865l-.951 1.11.85.915a.608.608 0 01.011.817l-.999 1.13 1.01 1.07a.608.608 0 01-.05.88l-1.306 1.116-.002.954z" fill="#212D55"/><path d="M31.604 26.785a.608.608 0 01-.608-.604v-.007a.608.608 0 11.608.611zm-2.634-5.982a2.973 2.973 0 110-5.946 2.973 2.973 0 010 5.946zm0-4.731a1.757 1.757 0 100 3.515 1.757 1.757 0 000-3.515z" fill="#212D55"/><path d="M9.907 39.983a.608.608 0 01-.595-.48l-.904-4.172a.608.608 0 01.074-.443l.765-1.267a.607.607 0 01.422-.286l1.338-.22-.291-1.362a.608.608 0 01.411-.707l1.438-.453-.251-1.216a.608.608 0 01.405-.701l1.311-.432-.474-1.354a.607.607 0 01.052-.514l1.88-3.132A7.633 7.633 0 0125.905 12.66l.087.053c.075.046.147.09.22.139a.61.61 0 01-.215 1.103.608.608 0 01-.457-.09 4.468 4.468 0 00-.183-.111l-.089-.055a6.417 6.417 0 00-8.562 9.183.607.607 0 01.024.662l-1.93 3.213.586 1.669a.607.607 0 01-.384.779l-1.385.456.253 1.222a.608.608 0 01-.412.703l-1.436.452.31 1.444a.609.609 0 01-.496.73l-1.693.28-.495.819.703 3.243 3.02-1.143 6.968-11.59a.604.604 0 01.615-.287 6.352 6.352 0 003.831-.585.61.61 0 01.882.502.61.61 0 01-.34.587 7.558 7.558 0 01-4.15.75l-6.871 11.433a.608.608 0 01-.304.255l-3.878 1.468a.595.595 0 01-.217.04z" fill="#212D55"/><path d="M20.863 26.742a.608.608 0 01-.519-.921l.005-.007a.609.609 0 11.815.849.616.616 0 01-.301.079zm10.379-8.96a.608.608 0 01-.287-1.148 7.76 7.76 0 10-11.685-3.858.607.607 0 11-1.146.406 8.983 8.983 0 1113.457 4.5c-.1.066-.218.1-.338.1z" fill="#212D55"/></svg><svg fill="none" viewBox="0 0 94 86" id="logo" xmlns="http://www.w3.org/2000/svg"><path d="M91.74 41.534L48.672 1.553c-.872-.81-2.286-.81-3.158 0L2.448 41.534a1.97 1.97 0 000 2.932l43.067 39.981c.872.81 2.286.81 3.158 0l43.066-39.981a1.97 1.97 0 000-2.932z" fill="url(#gpaint0_linear_4284_2)"/><path d="M63.312 70.038c-5.412 2.612-4.197 2.511-10.814 3.03-6.617.52-13.275-.53-19.22-3.03-5.945-2.5-10.94-6.35-14.42-11.116-3.48-4.766-5.306-10.256-5.272-15.85.035-5.594 1.928-11.068 5.467-15.803 3.539-4.735 8.58-8.542 14.556-10.99 5.976-2.448 12.646-3.44 19.256-2.863 6.61.577 8.298.98 13.55 4.409l-3.103 10.077c-3.398-2.218-7.466-3.592-11.743-3.965-4.277-.374-8.594.268-12.46 1.852-3.867 1.584-7.13 4.047-9.42 7.111-2.29 3.065-3.515 6.607-3.537 10.227-.023 3.62 1.16 7.172 3.411 10.256 2.252 3.084 5.484 5.575 9.331 7.193 3.847 1.618 8.155 2.297 12.437 1.961 4.282-.336 8.366-1.674 11.792-3.863l.19 11.364z" fill="#D0D0D0"/><defs><linearGradient id="gpaint0_linear_4284_2" x1="70.206" y1="21.544" x2="27.412" y2="67.641" gradientUnits="userSpaceOnUse"><stop stop-color="#212D55"/><stop offset=".492" stop-color="#212D55" stop-opacity=".38"/><stop offset="1" stop-color="#212D55"/></linearGradient></defs></svg><svg fill="none" viewBox="0 0 191 94" id="logo2" xmlns="http://www.w3.org/2000/svg"><g clip-path="url(#hclip0_360_134)"><path d="M96.74 45.534L53.672 5.553c-.872-.81-2.286-.81-3.158 0L7.448 45.534a1.97 1.97 0 000 2.932l43.067 39.981c.872.81 2.286.81 3.158 0l43.066-39.981a1.97 1.97 0 000-2.932z" fill="url(#hpaint0_linear_360_134)"/><path d="M68.312 74.038c-5.412 2.612-4.197 2.511-10.814 3.03-6.617.52-13.275-.53-19.22-3.03-5.945-2.5-10.94-6.35-14.42-11.116-3.48-4.766-5.306-10.256-5.272-15.85.035-5.594 1.929-11.068 5.467-15.803 3.539-4.735 8.58-8.542 14.556-10.99 5.976-2.448 12.646-3.44 19.256-2.863 6.61.577 8.298.98 13.55 4.409l-3.103 10.077c-3.398-2.218-7.466-3.592-11.743-3.965-4.277-.374-8.594.268-12.46 1.852-3.867 1.584-7.13 4.047-9.42 7.111-2.29 3.065-3.515 6.607-3.537 10.227-.023 3.62 1.16 7.172 3.411 10.256 2.252 3.084 5.484 5.575 9.331 7.193 3.847 1.618 8.155 2.297 12.437 1.961 4.282-.336 8.366-1.674 11.792-3.863l.19 11.364z" fill="#D0D0D0"/><path d="M93.886 19.195c-1.058 0-1.878.371-2.46 1.113-.58.735-.87 1.763-.87 3.083 0 2.747 1.11 4.12 3.33 4.12.932 0 2.06-.216 3.386-.648v2.19c-1.09.422-2.305.632-3.65.632-1.93 0-3.406-.542-4.428-1.626-1.023-1.09-1.534-2.651-1.534-4.684 0-1.281.251-2.402.754-3.362a5.19 5.19 0 012.16-2.216c.944-.517 2.048-.776 3.313-.776 1.288 0 2.583.29 3.884.868l-.908 2.124c-.496-.22-.995-.41-1.497-.573a4.778 4.778 0 00-1.48-.245zm14.395.902v1.93h-3.322v7.49h-2.768v-7.49H98.86v-1.93h9.421zm7.47 9.588c-1.192 0-2.127-.401-2.805-1.204h-.145c.096.786.145 1.24.145 1.364v3.817h-2.768V20.097h2.251l.39 1.222h.127c.647-.933 1.607-1.4 2.877-1.4 1.198 0 2.136.43 2.814 1.29.678.86 1.016 2.053 1.016 3.581 0 1.006-.16 1.879-.481 2.62-.314.742-.765 1.306-1.352 1.694-.587.388-1.277.581-2.069.581zm-.817-7.71c-.684 0-1.183.197-1.498.59-.315.388-.478 1.031-.49 1.93v.278c0 1.011.16 1.736.481 2.174.327.438.841.657 1.543.657 1.24 0 1.861-.95 1.861-2.848 0-.927-.155-1.62-.464-2.08-.302-.467-.78-.7-1.433-.7zm9.212 2.815c0 .933.163 1.637.49 2.115.333.477.871.716 1.616.716.738 0 1.267-.236 1.588-.708.327-.477.49-1.185.49-2.123 0-.932-.163-1.632-.49-2.098-.327-.466-.862-.7-1.607-.7-.738 0-1.27.234-1.597.7-.327.46-.49 1.16-.49 2.098zm7.016 0c0 1.534-.436 2.733-1.307 3.598-.871.865-2.085 1.297-3.64 1.297-.974 0-1.833-.196-2.577-.59a4.11 4.11 0 01-1.716-1.71c-.399-.741-.599-1.606-.599-2.595 0-1.54.433-2.736 1.298-3.59.865-.853 2.082-1.28 3.649-1.28.974 0 1.833.196 2.577.59a4.069 4.069 0 011.715 1.693c.4.736.6 1.598.6 2.587zm4.964-4.693v3.724c0 .393-.069 1.354-.209 2.882l4.684-6.606h3.33v9.42h-2.677v-3.758c0-.668.061-1.612.182-2.831l-4.666 6.589h-3.322v-9.42h2.678zm19.114 0v1.93h-3.322v7.49h-2.768v-7.49h-3.331v-1.93h9.421zm6.099 1.651c-.587 0-1.046.174-1.379.523-.333.342-.523.831-.572 1.466h3.884c-.012-.635-.19-1.124-.535-1.466-.345-.349-.811-.523-1.398-.523zm.391 7.937c-1.634 0-2.911-.418-3.83-1.255-.92-.837-1.38-2.022-1.38-3.556 0-1.578.423-2.797 1.271-3.656.853-.866 2.03-1.298 3.53-1.298 1.434 0 2.551.38 3.349 1.137.799.759 1.198 1.806 1.198 3.143v1.247h-6.543c.03.73.263 1.3.699 1.71.435.41 1.046.616 1.833.616a8.17 8.17 0 001.733-.177 9.116 9.116 0 001.707-.565v1.989a6.713 6.713 0 01-1.553.497c-.55.112-1.222.168-2.014.168zm15.474-.168h-2.768v-7.49h-2.55c-.194 2.106-.43 3.679-.708 4.718-.279 1.033-.651 1.783-1.117 2.25-.459.46-1.065.69-1.815.69-.641 0-1.167-.09-1.579-.27V27.36c.297.112.593.168.889.168.345 0 .633-.23.863-.69.236-.461.444-1.228.626-2.3.187-1.08.348-2.56.481-4.441h7.678v9.42zm5.682-5.78h1.951c1.561 0 2.717.23 3.467.69.751.461 1.126 1.158 1.126 2.09 0 2-1.495 3-4.484 3h-4.828v-9.42h2.768v3.64zm3.776 2.814c0-.365-.158-.63-.472-.792-.315-.163-.784-.244-1.407-.244h-1.897v2.224h1.933c1.228 0 1.843-.396 1.843-1.188zm-78.595 11.546c-.689 0-1.23.227-1.625.68-.395.453-.592 1.079-.592 1.877 0 .835.189 1.467.567 1.895.381.428.931.642 1.65.642.311 0 .612-.027.903-.083.291-.06.593-.134.908-.224v.955c-.576.202-1.228.302-1.957.302-1.073 0-1.897-.3-2.472-.903-.575-.605-.863-1.47-.863-2.593 0-.708.139-1.328.416-1.858a2.881 2.881 0 011.214-1.22c.529-.283 1.149-.424 1.861-.424.749 0 1.441.146 2.076.438l-.431.926a6.41 6.41 0 00-.788-.284 2.943 2.943 0 00-.867-.126zm7.433.801v.857h-1.806v4.293h-1.183v-4.293h-1.806v-.857h4.795zm3.882 5.243c-.702 0-1.247-.234-1.635-.703h-.07c.047.435.07.699.07.792v2.11h-1.178v-7.442h.953c.026.097.081.326.165.69h.06c.368-.522.92-.783 1.655-.783.692 0 1.231.233 1.615.699.388.465.582 1.119.582 1.96s-.197 1.498-.592 1.97c-.391.472-.933.707-1.625.707zm-.285-4.442c-.469 0-.811.128-1.029.382-.214.255-.321.661-.321 1.22v.163c0 .627.107 1.082.321 1.364.214.28.563.42 1.049.42.408 0 .722-.156.942-.466.221-.31.331-.753.331-1.327 0-.578-.11-1.014-.331-1.309-.217-.298-.538-.447-.962-.447zm8.792 1.765c0 .841-.232 1.498-.697 1.97-.465.472-1.112.707-1.941.707-.518 0-.977-.108-1.374-.325a2.222 2.222 0 01-.919-.936c-.213-.407-.32-.879-.32-1.416 0-.835.23-1.487.692-1.956.461-.468 1.112-.703 1.951-.703.802 0 1.437.24 1.906.722.468.478.702 1.124.702 1.937zm-4.038 0c0 1.189.474 1.783 1.42 1.783.936 0 1.404-.594 1.404-1.783 0-1.176-.472-1.765-1.414-1.765-.495 0-.855.152-1.079.457-.22.304-.331.74-.331 1.308zm6.526-2.566v2.64c0 .308-.027.76-.08 1.356l2.783-3.996h1.439v5.15h-1.133v-2.593c0-.143.008-.374.025-.694.02-.32.037-.553.05-.699l-2.774 3.986h-1.439v-5.15h1.129zm9.008 4.103l.065-.224c.137-.462.256-.818.356-1.066l1.244-2.813h1.57v5.15h-1.089V39.89l-.09.28c-.15.5-.277.867-.381 1.103l-1.214 2.775h-.892l-1.214-2.794a12.019 12.019 0 01-.462-1.364v4.158H136.2v-5.15h1.56l1.203 2.729c.108.252.248.71.422 1.374zm12.404-2.785c0 .609-.383.976-1.149 1.104v.037c.428.047.756.172.983.377.228.205.341.47.341.796 0 .488-.201.863-.602 1.127-.398.26-.978.391-1.74.391h-2.648v-5.15h2.638c1.451 0 2.177.44 2.177 1.318zm-1.034 2.25c0-.25-.103-.425-.311-.527-.207-.105-.518-.158-.933-.158h-1.359v1.457h1.39c.809 0 1.213-.258 1.213-.773zm-.145-2.157a.461.461 0 00-.261-.442c-.17-.093-.426-.14-.767-.14h-1.43v1.239h1.254c.395 0 .694-.047.898-.14.204-.096.306-.268.306-.517zm9.801 3.74h-1.189v-4.294h-1.53c-.093 1.105-.221 1.968-.381 2.59-.157.62-.365 1.073-.622 1.359-.254.285-.585.428-.993.428-.258 0-.473-.034-.647-.102v-.857c.123.043.247.065.371.065.341 0 .608-.355.803-1.066.197-.714.351-1.805.461-3.274h3.727v5.15zm9.098-2.585c0 .844-.222 1.503-.667 1.974-.442.47-1.058.703-1.851.703-.729 0-1.309-.198-1.74-.596-.428-.4-.677-.973-.748-1.718h-1.223v2.221h-1.179v-5.15h1.179v2.068h1.234c.083-.683.341-1.214.772-1.593.434-.378 1.01-.568 1.725-.568.769 0 1.378.24 1.826.722.448.478.672 1.124.672 1.937zm-3.802 0c0 .587.1 1.03.301 1.332.204.3.535.451.993.451.455 0 .785-.15.989-.451.204-.301.305-.745.305-1.332 0-.58-.101-1.02-.305-1.318-.204-.298-.534-.447-.989-.447-.458 0-.789.15-.993.447-.201.298-.301.737-.301 1.318zm4.851-.508c0-1.148.208-2.031.626-2.649.422-.618 1.09-1.015 2.007-1.192.692-.13 1.489-.258 2.392-.382l.165.964a95.74 95.74 0 00-2.407.363c-.525.09-.905.29-1.138.6-.231.311-.365.779-.402 1.403h.075c.191-.258.44-.457.748-.596.307-.143.637-.215.988-.215.682 0 1.214.2 1.595.6.381.401.572.963.572 1.687 0 .828-.233 1.47-.697 1.923-.462.453-1.102.68-1.922.68-.812 0-1.449-.28-1.91-.839-.462-.558-.692-1.34-.692-2.346zm2.683 2.291c.876 0 1.314-.533 1.314-1.601 0-1.031-.396-1.546-1.189-1.546-.217 0-.428.043-.632.13a2.328 2.328 0 00-.567.345c-.17.142-.302.29-.396.442 0 .733.125 1.288.376 1.667.251.376.616.563 1.094.563zm5.075-2.29h1.124c.776 0 1.35.124 1.72.372.372.248.558.62.558 1.117 0 .531-.195.932-.583 1.202-.384.267-.949.4-1.695.4h-2.302v-5.15h1.178v2.058zm2.232 1.517c0-.257-.103-.437-.31-.54-.204-.102-.499-.153-.883-.153h-1.039v1.457h.888c.475 0 .818-.062 1.028-.186.211-.124.316-.317.316-.578zm3.226 1.574h-1.184v-5.15h1.184v5.15zm2.924-2.63l-1.861-2.52h1.344l1.264 1.802 1.274-1.802h1.335l-1.867 2.52 1.961 2.63h-1.333l-1.37-1.927-1.364 1.927h-1.334l1.951-2.63zm-69.463 10.65v2.067h2.614v-2.068h1.178v5.15h-1.178v-2.22h-2.614v2.22h-1.178v-5.15h1.178zm8.954 5.15l-.236-.718h-.04c-.268.314-.537.528-.808.643-.271.112-.618.167-1.043.167-.545 0-.972-.136-1.279-.41-.304-.273-.457-.659-.457-1.158 0-.531.213-.932.637-1.202.425-.27 1.072-.417 1.942-.442l.957-.029v-.274c0-.329-.083-.574-.25-.736-.164-.164-.42-.246-.767-.246-.285 0-.558.038-.818.116a6.85 6.85 0 00-.753.274l-.381-.782c.301-.146.63-.255.988-.33a4.819 4.819 0 011.013-.117c.706 0 1.238.143 1.596.429.361.285.541.734.541 1.346v3.468h-.842zm-1.756-.746c.428 0 .771-.11 1.028-.33.261-.224.392-.536.392-.936v-.447l-.713.028c-.555.018-.959.105-1.214.26-.251.153-.376.387-.376.704 0 .23.074.408.221.535.147.124.368.186.662.186zm9.093-4.405v5.15h-1.183v-4.284h-2.488v4.284h-1.178v-5.15h4.849zm4.505 5.243c-.702 0-1.248-.234-1.636-.703h-.07c.047.435.07.699.07.792v2.11h-1.178v-7.442h.953c.027.097.082.326.165.69h.06c.368-.522.92-.783 1.656-.783.692 0 1.23.233 1.615.699.388.466.581 1.12.581 1.96 0 .841-.197 1.498-.591 1.97-.391.472-.933.707-1.625.707zm-.286-4.442c-.468 0-.811.128-1.028.382-.215.255-.322.661-.322 1.22v.163c0 .627.107 1.082.322 1.364.213.28.563.42 1.048.42.408 0 .722-.156.943-.466.221-.31.331-.753.331-1.327 0-.578-.11-1.014-.331-1.309-.218-.298-.539-.447-.963-.447zm7.343 4.35l-.236-.718h-.04c-.268.314-.537.528-.808.643-.27.112-.618.167-1.043.167-.545 0-.971-.136-1.279-.41-.304-.273-.456-.659-.456-1.158 0-.531.212-.932.637-1.202.424-.27 1.071-.417 1.941-.442l.958-.029v-.274c0-.329-.084-.574-.251-.736-.164-.164-.42-.246-.768-.246a2.85 2.85 0 00-.817.116c-.261.078-.512.17-.752.274l-.382-.782c.301-.146.631-.255.989-.33a4.804 4.804 0 011.013-.117c.705 0 1.237.143 1.595.429.361.285.541.734.541 1.346v3.468h-.842zm-1.756-.746c.428 0 .771-.11 1.028-.33.261-.224.391-.536.391-.936v-.447l-.712.028c-.555.018-.959.105-1.213.26-.251.153-.376.387-.376.704 0 .23.073.408.22.535.147.124.368.186.662.186zm9.059-3.087c0 .609-.383.977-1.149 1.104v.037c.428.047.756.172.983.377.227.205.341.47.341.796 0 .488-.2.864-.602 1.127-.398.261-.978.391-1.74.391h-2.649v-5.15h2.639c1.451 0 2.177.44 2.177 1.318zm-1.034 2.25c0-.249-.103-.424-.311-.527-.207-.105-.518-.158-.932-.158h-1.36v1.457h1.389c.81 0 1.214-.258 1.214-.773zm-.145-2.157a.461.461 0 00-.261-.442c-.171-.093-.426-.14-.768-.14h-1.429v1.239h1.254c.395 0 .694-.047.898-.14.204-.096.306-.268.306-.517zm7.132 3.74h-1.189v-4.294h-1.529c-.094 1.105-.221 1.968-.382 2.59-.157.62-.364 1.073-.621 1.359-.255.285-.585.428-.993.428a1.79 1.79 0 01-.648-.102v-.857c.124.044.248.065.372.065.341 0 .608-.355.802-1.066.198-.714.351-1.805.462-3.274h3.726v5.15zm4.113.092c-.863 0-1.538-.233-2.026-.698-.485-.469-.728-1.113-.728-1.932 0-.842.226-1.503.677-1.984.452-.481 1.072-.722 1.862-.722.732 0 1.31.207 1.735.62.425.413.637.98.637 1.704v.591h-3.697c.017.5.162.885.437 1.155.274.267.66.4 1.158.4.328 0 .632-.028.913-.084.284-.059.589-.155.913-.288v.89a3.834 3.834 0 01-.873.27c-.294.052-.63.078-1.008.078zm-.215-4.507c-.375 0-.676.11-.903.33-.224.221-.358.542-.402.965h2.518c-.007-.426-.117-.747-.331-.964-.214-.22-.508-.331-.882-.331zm4.89-.736v2.068h2.613v-2.068h1.178v5.15h-1.178v-2.22h-2.613v2.22h-1.179v-5.15h1.179zm6.61 0v2.64c0 .308-.026.76-.08 1.356l2.784-3.996h1.44v5.15h-1.134v-2.593c0-.143.008-.374.025-.694.02-.32.037-.553.05-.698l-2.773 3.985h-1.44v-5.15h1.128zm6.39 5.15h-1.319l1.545-2.109c-.375-.1-.669-.276-.883-.53-.214-.258-.321-.577-.321-.955 0-.488.188-.868.562-1.141.375-.277.886-.415 1.535-.415h2.528v5.15h-1.184v-1.983h-1.119l-1.344 1.983zm.171-3.585c0 .264.107.462.321.596.217.13.508.196.872.196h1.099v-1.528h-1.284c-.321 0-.57.064-.747.191a.634.634 0 00-.261.545zm6.395.955l-1.861-2.52h1.344l1.264 1.802 1.274-1.802h1.335l-1.867 2.52 1.961 2.63h-1.333l-1.37-1.927-1.364 1.927h-1.334l1.951-2.63z" fill="#212D55"/></g><defs><linearGradient id="hpaint0_linear_360_134" x1="75.206" y1="25.544" x2="32.411" y2="71.641" gradientUnits="userSpaceOnUse"><stop stop-color="#212D55"/><stop offset=".492" stop-color="#212D55" stop-opacity=".38"/><stop offset="1" stop-color="#212D55"/></linearGradient><clipPath id="hclip0_360_134"><path fill="#fff" d="M0 0h190.279v94H0z"/></clipPath></defs></svg><svg fill="none" viewBox="0 0 45 45" id="office" xmlns="http://www.w3.org/2000/svg"><path d="M31.066 38.969a.608.608 0 01-.608-.608V6.057l-7.707-3.234-6.472 2.547v32.99a.609.609 0 01-1.216 0V4.956a.608.608 0 01.385-.566l7.087-2.79a.608.608 0 01.458.004l8.308 3.487a.608.608 0 01.373.56V38.36a.609.609 0 01-.608.608z" fill="#212D55"/><path d="M22.756 38.969a.609.609 0 01-.608-.608V2.167a.608.608 0 011.217 0V38.36a.608.608 0 01-.608.608zm18.127 0a.609.609 0 01-.608-.608V19.248l-5.946-3.46h-3.264a.609.609 0 010-1.216h3.428c.107 0 .212.029.304.083l6.39 3.718a.608.608 0 01.305.525v19.46a.609.609 0 01-.609.61z" fill="#212D55"/><path d="M34.495 38.969a.608.608 0 01-.608-.608V15.18a.608.608 0 011.216 0v23.18a.608.608 0 01-.608.608zm-31.317 0a.608.608 0 01-.608-.608V19.42a.608.608 0 01.608-.608H15.67a.608.608 0 010 1.216H3.787V38.36a.608.608 0 01-.609.608z" fill="#212D55"/><path d="M6.53 22.365H5.236a.608.608 0 110-1.216h1.292a.608.608 0 010 1.216zm3.543 0H8.78a.608.608 0 110-1.216h1.293a.608.608 0 010 1.216zm3.542 0h-1.292a.608.608 0 110-1.216h1.292a.608.608 0 010 1.216zM6.53 25.219H5.236a.608.608 0 110-1.216h1.292a.608.608 0 010 1.216zm3.543 0H8.78a.608.608 0 110-1.216h1.293a.608.608 0 010 1.216zm3.542 0h-1.292a.608.608 0 110-1.216h1.292a.608.608 0 010 1.216zM6.53 28.072H5.236a.608.608 0 010-1.216h1.292a.608.608 0 010 1.216zm3.543 0H8.78a.608.608 0 010-1.216h1.293a.608.608 0 010 1.216zm3.542 0h-1.292a.608.608 0 010-1.216h1.292a.608.608 0 010 1.216zM6.53 30.926H5.236a.608.608 0 110-1.216h1.292a.608.608 0 010 1.216zm3.543 0H8.78a.608.608 0 110-1.216h1.293a.608.608 0 010 1.216zm3.542 0h-1.292a.608.608 0 110-1.216h1.292a.608.608 0 010 1.216zM6.53 33.78H5.236a.608.608 0 010-1.216h1.292a.608.608 0 010 1.216zm3.543 0H8.78a.608.608 0 010-1.216h1.293a.608.608 0 010 1.216zm3.542 0h-1.292a.608.608 0 010-1.216h1.292a.608.608 0 010 1.216zM6.53 36.634H5.236a.608.608 0 110-1.217h1.292a.608.608 0 010 1.217zm3.543 0H8.78a.608.608 0 110-1.217h1.293a.608.608 0 010 1.217zm3.542 0h-1.292a.608.608 0 110-1.217h1.292a.608.608 0 010 1.217zM20.616 8.12a.608.608 0 01-.608-.609V6.364a.608.608 0 011.216 0V7.51a.608.608 0 01-.608.608zm-2.773.707a.608.608 0 01-.609-.608V7.07a.608.608 0 111.217 0v1.15a.608.608 0 01-.608.608zm2.773 3.867a.608.608 0 01-.608-.608v-1.148a.608.608 0 011.216 0v1.148a.608.608 0 01-.608.608zm-2.773.706a.608.608 0 01-.609-.607v-1.148a.608.608 0 111.217 0v1.148a.608.608 0 01-.608.608zm2.773 3.87a.608.608 0 01-.608-.608v-1.15a.608.608 0 011.216 0v1.15a.608.608 0 01-.608.608zm-2.773.705a.608.608 0 01-.609-.608v-1.148a.608.608 0 111.217 0v1.148a.608.608 0 01-.608.608zm2.773 3.866a.608.608 0 01-.608-.608v-1.147a.609.609 0 011.216 0v1.147a.608.608 0 01-.608.608zm-2.773.708a.608.608 0 01-.609-.608v-1.148a.608.608 0 111.217 0v1.148a.608.608 0 01-.608.608zm2.773 3.867a.608.608 0 01-.608-.608V24.66a.608.608 0 011.216 0v1.148a.608.608 0 01-.608.608zm-2.773.706a.608.608 0 01-.609-.608v-1.147a.608.608 0 111.217 0v1.146a.608.608 0 01-.608.609zm2.773 3.868a.608.608 0 01-.608-.608v-1.148a.608.608 0 011.216 0v1.148a.608.608 0 01-.608.608zm-2.773.707a.608.608 0 01-.609-.608V29.94a.608.608 0 111.217 0v1.148a.608.608 0 01-.608.608zm2.773 3.866a.608.608 0 01-.608-.608v-1.144a.608.608 0 011.216 0v1.147a.608.608 0 01-.608.605zm-2.773.708a.608.608 0 01-.609-.608v-1.148a.608.608 0 111.217 0v1.148a.608.608 0 01-.608.608zM24.811 7.54a.608.608 0 01-.608-.608V5.786a.608.608 0 011.216 0v1.146a.608.608 0 01-.608.609zm2.055.776a.608.608 0 01-.608-.608V6.56a.608.608 0 011.216 0v1.147a.608.608 0 01-.608.608zm2.051.774a.608.608 0 01-.608-.608V7.336a.608.608 0 011.216 0v1.147a.608.608 0 01-.608.608zm-4.106 3.011a.608.608 0 01-.608-.608v-1.15a.608.608 0 011.216 0v1.15a.608.608 0 01-.608.608zm2.055.773a.608.608 0 01-.608-.609V11.12a.608.608 0 011.216 0v1.146a.608.608 0 01-.608.609zm2.051.774a.608.608 0 01-.608-.608v-1.147a.608.608 0 011.216 0v1.148a.608.608 0 01-.608.607zm-4.106 3.009a.609.609 0 01-.608-.608V14.9a.609.609 0 011.216 0v1.147a.608.608 0 01-.608.611zm2.055.775a.608.608 0 01-.608-.608v-1.148a.608.608 0 011.216 0v1.148a.608.608 0 01-.608.608zm2.051.774a.608.608 0 01-.608-.608v-1.147a.608.608 0 011.216 0V17.6a.608.608 0 01-.608.607zm-4.106 3.009a.609.609 0 01-.608-.608v-1.148a.608.608 0 011.216 0v1.148a.608.608 0 01-.608.608zm2.055.775a.608.608 0 01-.608-.608v-1.148a.608.608 0 011.216 0v1.148a.608.608 0 01-.608.608zm2.051.775a.608.608 0 01-.608-.609V21.01a.608.608 0 011.216 0v1.147a.608.608 0 01-.608.609zm-4.106 3.008a.609.609 0 01-.608-.608V24.02a.608.608 0 011.216 0v1.148a.608.608 0 01-.608.605zm2.055.774a.608.608 0 01-.608-.608v-1.147a.609.609 0 011.216 0v1.147a.608.608 0 01-.608.608zm2.051.775a.608.608 0 01-.608-.608v-1.147a.608.608 0 011.216 0v1.147a.609.609 0 01-.608.608zm-4.106 3.008a.608.608 0 01-.608-.607v-1.148a.608.608 0 011.216 0v1.148a.608.608 0 01-.608.608zm2.055.775a.608.608 0 01-.608-.608V29.35a.609.609 0 011.216 0v1.147a.608.608 0 01-.608.608zm2.051.775a.608.608 0 01-.608-.608v-1.147a.608.608 0 011.216 0v1.147a.609.609 0 01-.608.608zm-4.106 3.008a.609.609 0 01-.608-.608v-1.147a.608.608 0 011.216 0v1.147a.608.608 0 01-.608.608zm2.055.775a.608.608 0 01-.608-.608v-1.148a.608.608 0 011.216 0v1.148a.608.608 0 01-.608.608zm2.051.775a.608.608 0 01-.608-.608v-1.148a.608.608 0 011.216 0v1.148a.608.608 0 01-.608.608zm7.691-15.975a.608.608 0 01-.608-.608v-.615a.609.609 0 011.216 0v.615a.608.608 0 01-.608.608zm2.051 1.287a.608.608 0 01-.608-.607v-.615a.608.608 0 111.216 0v.615a.608.608 0 01-.608.608zm-2.051 1.716a.608.608 0 01-.608-.608v-.615a.608.608 0 011.216 0v.615a.608.608 0 01-.608.608zm2.051 1.288a.608.608 0 01-.608-.609v-.611a.608.608 0 111.216 0v.615a.608.608 0 01-.608.605zm-2.051 1.716a.608.608 0 01-.608-.61v-.615a.608.608 0 011.216 0v.615a.608.608 0 01-.608.608zm2.051 1.287a.608.608 0 01-.608-.608v-.615a.608.608 0 111.216 0v.615a.608.608 0 01-.608.608zm-2.051 1.716a.608.608 0 01-.608-.609v-.614a.608.608 0 011.216 0v.614a.608.608 0 01-.608.608zm2.051 1.287a.608.608 0 01-.608-.608v-.615a.608.608 0 111.216 0v.615a.608.608 0 01-.608.608zm-2.051 1.713a.608.608 0 01-.608-.608v-.612a.608.608 0 011.216 0v.612a.608.608 0 01-.608.608zm2.051 1.29a.608.608 0 01-.608-.608v-.614a.608.608 0 111.216 0v.614a.608.608 0 01-.608.608zm-2.051 1.716A.608.608 0 0136 34.87v-.615a.609.609 0 011.216 0v.615a.608.608 0 01-.608.608zm2.051 1.287a.608.608 0 01-.608-.608v-.615a.608.608 0 111.216 0v.615a.608.608 0 01-.608.608zm4.051 2.193H1.358a.608.608 0 010-1.216H42.71a.609.609 0 010 1.216z" fill="#212D55"/></svg><svg fill="none" viewBox="0 0 45 45" id="parking" xmlns="http://www.w3.org/2000/svg"><g clip-path="url(#jclip0_360_6815)" fill="#212D55"><path d="M24.745 10.919h-8.046V34.08h2.637v-7.34h5.409c4.287 0 7.774-3.488 7.774-7.775v-.27c0-4.287-3.487-7.775-7.774-7.775zm5.138 8.045a5.144 5.144 0 01-5.138 5.138h-5.41V13.555h5.41a5.144 5.144 0 015.138 5.138v.271z"/><path d="M38.41 6.59C34.16 2.34 28.51 0 22.5 0S10.84 2.34 6.59 6.59 0 16.49 0 22.5s2.34 11.66 6.59 15.91S16.49 45 22.5 45s11.66-2.34 15.91-6.59S45 28.51 45 22.5s-2.34-11.66-6.59-15.91zm-1.864 29.955A19.734 19.734 0 0122.5 42.363a19.733 19.733 0 01-14.045-5.818A19.733 19.733 0 012.637 22.5 19.734 19.734 0 018.455 8.454 19.734 19.734 0 0122.5 2.637a19.734 19.734 0 0114.045 5.817A19.734 19.734 0 0142.363 22.5a19.734 19.734 0 01-5.818 14.045z"/></g><defs><clipPath id="jclip0_360_6815"><path fill="#fff" d="M0 0h45v45H0z"/></clipPath></defs></svg><svg fill="none" viewBox="0 0 24 24" id="phone" xmlns="http://www.w3.org/2000/svg"><path d="M18.966 14.867c-.492-.512-1.084-.785-1.712-.785-.623 0-1.221.268-1.733.78l-1.6 1.596c-.132-.071-.264-.137-.39-.203a6.43 6.43 0 01-.502-.268c-1.5-.953-2.862-2.194-4.169-3.8-.633-.8-1.058-1.473-1.367-2.157.415-.38.8-.775 1.175-1.155.142-.142.284-.289.425-.43 1.064-1.064 1.064-2.442 0-3.506L7.71 3.556a19.364 19.364 0 01-.47-.481 23.922 23.922 0 00-.953-.942c-.491-.486-1.079-.745-1.697-.745-.618 0-1.215.259-1.722.745l-.01.01L1.136 3.88a3.706 3.706 0 00-1.1 2.356c-.121 1.479.315 2.857.649 3.758.82 2.214 2.046 4.265 3.875 6.464 2.218 2.649 4.888 4.74 7.937 6.215 1.165.552 2.72 1.205 4.458 1.317.106.005.218.01.319.01 1.17 0 2.153-.42 2.923-1.256.005-.01.015-.015.02-.026.263-.319.567-.607.886-.916.218-.208.441-.426.659-.654.501-.522.765-1.13.765-1.752 0-.629-.269-1.231-.78-1.738l-2.781-2.79zm1.813 5.334c-.005 0-.005.005 0 0-.197.213-.4.405-.618.618-.33.314-.663.643-.978 1.013-.511.547-1.114.805-1.904.805-.076 0-.157 0-.233-.005-1.505-.096-2.902-.684-3.951-1.185-2.867-1.388-5.385-3.358-7.477-5.855-1.727-2.082-2.882-4.007-3.647-6.074-.47-1.261-.643-2.244-.567-3.17a2.32 2.32 0 01.7-1.505L3.83 3.115c.249-.233.512-.36.77-.36.32 0 .578.193.74.355l.015.016c.31.288.603.587.912.906.157.162.319.324.481.492l1.383 1.382c.537.537.537 1.034 0 1.57-.147.148-.289.295-.436.436-.425.436-.83.841-1.271 1.236-.01.01-.02.016-.025.026-.436.435-.355.86-.264 1.15l.015.045c.36.871.867 1.692 1.636 2.67l.006.005c1.398 1.722 2.872 3.064 4.498 4.092.207.132.42.239.623.34.182.091.354.177.501.268.02.01.04.026.06.036.173.086.335.126.502.126.42 0 .684-.263.77-.35l1.733-1.732c.172-.172.445-.38.765-.38.314 0 .572.198.729.37l.01.01 2.791 2.792c.522.516.522 1.048.005 1.585zM12.97 5.71a6.423 6.423 0 013.494 1.812 6.457 6.457 0 011.814 3.496.68.68 0 00.673.567c.04 0 .076-.005.117-.01a.685.685 0 00.562-.79 7.813 7.813 0 00-2.193-4.23 7.813 7.813 0 00-4.23-2.193.687.687 0 00-.79.557c-.066.37.177.73.552.79zm11.002 4.877a12.853 12.853 0 00-3.611-6.965A12.853 12.853 0 0013.396.011a.681.681 0 00-.785.557.687.687 0 00.562.79c2.36.4 4.513 1.52 6.225 3.227a11.475 11.475 0 013.227 6.225.68.68 0 00.674.567c.04 0 .076-.005.116-.01a.671.671 0 00.557-.78z" fill="#31BEF4"/></svg><svg fill="none" viewBox="0 0 45 45" id="putty-knife" xmlns="http://www.w3.org/2000/svg"><path d="M.703 39.375h43.594a.702.702 0 00.703-.703V24.61a2.818 2.818 0 00-2.815-2.814h-7.863a2.105 2.105 0 00-1.978-1.402h-2.799l-.014-.002a2.112 2.112 0 01-2.11-2.11v-7.736A4.928 4.928 0 0022.5 5.625a4.928 4.928 0 00-4.922 4.922v7.736c0 1.163-.946 2.11-2.11 2.11l-.013.002h-2.799c-.914 0-1.685.588-1.978 1.402H2.815c-.007 0-.012.003-.019.003A2.815 2.815 0 000 24.611v14.061c0 .389.314.703.703.703zm42.89-3.516H1.407v-5.626h42.188v5.626zM1.407 37.97v-.703h42.188v.703H1.406zm17.578-19.686v-7.736A3.52 3.52 0 0122.5 7.03a3.52 3.52 0 013.516 3.516v7.736a3.518 3.518 0 003.488 3.513c.01 0 .017.006.027.006h2.813c.388 0 .703.315.703.703v3.513H11.953v-3.513c0-.388.315-.703.703-.703h2.813c.01 0 .017-.005.027-.006a3.518 3.518 0 003.488-3.513zM2.812 23.205l.011-.002h7.724v3.518c0 .389.314.703.703.703h22.5a.702.702 0 00.703-.703v-3.518h7.732a1.41 1.41 0 011.409 1.409v4.215H1.406V24.61c0-.775.631-1.406 1.407-1.406z" fill="#212D55"/><path d="M22.5 12.656c1.163 0 2.11-.947 2.11-2.11 0-1.163-.947-2.11-2.11-2.11-1.163 0-2.11.947-2.11 2.11 0 1.163.947 2.11 2.11 2.11zm0-2.813a.703.703 0 110 1.407.703.703 0 010-1.407z" fill="#212D55"/></svg><svg fill="none" viewBox="0 0 45 45" id="slider" xmlns="http://www.w3.org/2000/svg"><path d="M42.89 35.86h-2.366l-11.65-24.671.514-1.797a3.515 3.515 0 00-2.618-4.398l-.828-.184A3.52 3.52 0 0021.8 7.276l-1.738 6.083H18.65l-1.025-2.17.514-1.797a3.515 3.515 0 00-2.618-4.398l-.85-.189a3.526 3.526 0 00-4.135 2.436L1.433 39.183a.703.703 0 101.353.384l1.051-3.708h9.796l-.95 3.323a.703.703 0 001.353.386l4.522-15.828 7.525 15.935a.703.703 0 00.636.403h16.172a.703.703 0 00.703-.703v-2.813a.703.703 0 00-.703-.703zM23.153 7.662a2.11 2.11 0 012.485-1.48l.828.184a2.11 2.11 0 011.57 2.638l-.44 1.542h-5.267l.824-2.884zm-11.268-.024a2.116 2.116 0 012.48-1.461l.85.189a2.11 2.11 0 011.571 2.639l-.44 1.54h-5.32l.86-2.907zM6.628 26.016l.798-2.813h9.823l-.804 2.813H6.628zm9.416 1.406l-.804 2.812H5.432l.797-2.812h9.815zm-8.22-5.625l.798-2.813h7.69l1.328 2.813H7.824zm1.197-4.219l.797-2.812h4.502l1.329 2.812H9.02zM4.236 34.453l.797-2.812h9.805l-.803 2.812H4.236zm26.702 4.219h-3.773l-11.763-24.91a.703.703 0 00-.636-.403h-4.55l.4-1.406h5.814l11.763 24.91a.703.703 0 00.635.403h2.11v1.406zm1.406 0v-2.11a.703.703 0 00-.703-.703h-2.367l-9.961-21.093h6.257l11.29 23.906h-4.516zm9.844 0h-3.773l-11.763-24.91a.703.703 0 00-.636-.403h-4.492l.402-1.406h5.754l11.763 24.91a.703.703 0 00.635.403h2.11v1.406z" fill="#212D55"/></svg><svg fill="none" viewBox="0 0 45 45" id="star" xmlns="http://www.w3.org/2000/svg"><g clip-path="url(#nclip0_360_6768)"><path d="M10.072 44.09a2.393 2.393 0 01-2.33-2.925l2.894-12.752-9.818-8.61a2.39 2.39 0 01-.7-2.541 2.391 2.391 0 012.056-1.645l12.99-1.18L20.3 2.42a2.391 2.391 0 014.4-.002l5.135 12.02 12.988 1.18a2.388 2.388 0 012.06 1.645 2.39 2.39 0 01-.7 2.54l-9.818 8.609 2.895 12.752a2.39 2.39 0 01-3.559 2.584L22.5 37.053 11.298 43.75c-.378.224-.8.34-1.226.34zM22.5 34.17c.426 0 .847.113 1.226.338l10.572 6.323-2.733-12.036a2.391 2.391 0 01.758-2.33l9.27-8.13L29.33 17.22a2.389 2.389 0 01-1.988-1.45L22.5 4.43l-4.847 11.344a2.382 2.382 0 01-1.982 1.444L3.404 18.33l9.27 8.13c.664.581.955 1.474.758 2.332l-2.73 12.036 10.571-6.32c.38-.226.801-.34 1.227-.34zm-7.435-19.5l-.002.004.002-.004zm14.866-.005l.002.004-.002-.004z" fill="#212D55"/></g><defs><clipPath id="nclip0_360_6768"><path fill="#fff" d="M0 0h45v45H0z"/></clipPath></defs></svg></svg>