<svg width="45" height="45" viewBox="0 0 45 45" fill="none" xmlns="http://www.w3.org/2000/svg">
<g clip-path="url(#clip0_360_6759)">
<path d="M0.750163 45.0869H36.7501C37.1645 45.0869 37.5002 44.7512 37.5002 44.3371V37.587H42.75C43.1644 37.587 43.5002 37.2513 43.5002 36.8372V29.337C43.5002 28.9229 43.1644 28.5871 42.75 28.5871H37.5002V21.8371C37.5002 21.4227 37.1645 21.0869 36.7501 21.0869H35.3737C35.4794 20.5966 35.3675 20.0844 35.0671 19.6827L31.6782 15.1652L33.243 13.9914C33.9383 13.4709 34.3265 12.6367 34.2775 11.7694L34.2023 10.4188C34.1817 10.0525 34.3458 9.70021 34.6393 9.48014L36.2038 8.30666L36.8623 9.18419C36.9815 9.34315 37.159 9.44855 37.356 9.47671C37.3911 9.48151 37.4264 9.48426 37.4621 9.48392C37.6245 9.48426 37.7824 9.43139 37.9122 9.33388L44.1003 4.6918C45.0939 3.94644 45.2954 2.53641 44.55 1.54249L44.1333 0.986305C43.3869 -0.00624385 41.9775 -0.207088 40.9833 0.537238L34.7959 5.17898C34.4646 5.42754 34.3973 5.8979 34.6458 6.2292L35.304 7.10674L33.7395 8.28057C33.0442 8.80104 32.6556 9.63498 32.705 10.5022L32.7799 11.8528C32.8008 12.2192 32.6367 12.5718 32.3432 12.7915L30.7786 13.9653L27.3893 9.44787C27.0347 8.96756 26.4586 8.70285 25.8629 8.74646C25.2947 8.78765 24.787 9.11724 24.5174 9.61953L18.3548 21.0869H0.750163C0.335771 21.0869 0 21.4227 0 21.8371V29.337C0 29.7514 0.335771 30.0871 0.750163 30.0871H5.99993V36.0871H0.750163C0.335771 36.0871 0 36.4228 0 36.8372V44.3371C0 44.7512 0.335771 45.0869 0.750163 45.0869ZM41.8834 1.73681C42.2144 1.48824 42.6844 1.55519 42.9333 1.8865L43.3501 2.44269C43.5984 2.77399 43.5311 3.24366 43.2001 3.49223L37.6118 7.68455L36.2952 5.9288L41.8834 1.73681ZM13.5002 37.587H24.0001V43.587H13.5002V37.587ZM19.5001 30.0871H30V36.0871H19.5001V30.0871ZM36.0003 43.587H25.5V37.587H36.0003V43.587ZM42.0002 36.0871H31.5V30.0871H42.0002V36.0871ZM36.0003 28.5871H25.5V24.2197L33.1768 22.5869H36.0003V28.5871ZM25.8392 10.3302C25.8646 10.2777 25.9175 10.244 25.9759 10.2423L25.9906 10.2416C26.0703 10.243 26.1441 10.2825 26.1894 10.3477L29.578 14.8652L26.484 17.1864C26.1527 17.435 26.0854 17.905 26.334 18.2366C26.5825 18.5679 27.0525 18.6349 27.3842 18.3866L30.4782 16.0654L33.8672 20.5829C33.9211 20.6488 33.9369 20.7377 33.9084 20.8177C33.8905 20.8733 33.8435 20.9142 33.7858 20.9245L18.9065 24.0886C18.8141 24.103 18.7215 24.0635 18.6682 23.9866C18.6085 23.9145 18.5965 23.8143 18.6373 23.7298L25.8392 10.3302ZM17.4687 24.8868C17.8683 25.4365 18.5543 25.6984 19.2186 25.5556L24.0001 24.5387V28.5871H13.5002V22.5869H17.5483L17.3159 23.0195C16.9945 23.6179 17.0546 24.3488 17.4687 24.8868ZM1.49998 25.5872H2.99996C3.41436 25.5872 3.75013 25.2514 3.75013 24.837C3.75013 24.423 3.41436 24.0872 2.99996 24.0872H1.49998V22.5869H12.0002V28.5871H1.49998V25.5872ZM7.49991 30.0871H18.0001V36.0871H7.49991V30.0871ZM1.49998 37.587H12.0002V43.587H1.49998V37.587Z" fill="#212D55"/>
<path d="M9.74995 24.837C9.74995 24.4229 9.41418 24.0872 8.99978 24.0872H5.99982C5.58577 24.0872 5.25 24.4229 5.25 24.837C5.25 25.2514 5.58577 25.5871 5.99982 25.5871H8.99978C9.41418 25.5871 9.74995 25.2514 9.74995 24.837Z" fill="#212D55"/>
</g>
<defs>
<clipPath id="clip0_360_6759">
<rect width="45" height="45" fill="white"/>
</clipPath>
</defs>
</svg>
