<svg width="45" height="45" viewBox="0 0 45 45" fill="none" xmlns="http://www.w3.org/2000/svg">
<g clip-path="url(#clip0_360_6570)">
<path d="M44.25 43.5H39.75V18.75C39.75 18.3358 39.4142 18 39 18H28.5V0.75C28.5 0.335812 28.1642 0 27.75 0H8.25C7.83581 0 7.5 0.335812 7.5 0.75V43.5H0.75C0.335812 43.5 0 43.8358 0 44.25C0 44.6642 0.335812 45 0.75 45H44.25C44.6642 45 45 44.6642 45 44.25C45 43.8358 44.6642 43.5 44.25 43.5ZM15.75 43.5H12.75V36.75C12.75 36.3358 13.0858 36 13.5 36H15C15.4142 36 15.75 36.3358 15.75 36.75V43.5ZM18.75 18.75V43.5H17.25V36.75C17.25 35.5073 16.2427 34.5 15 34.5H13.5C12.2573 34.5 11.25 35.5073 11.25 36.75V43.5H9V1.5H27V18H19.5C19.0858 18 18.75 18.3358 18.75 18.75ZM38.25 43.5H20.25V19.5H38.25V43.5Z" fill="#212D55"/>
<path d="M24 10.5H19.5C19.0858 10.5 18.75 10.8358 18.75 11.25V15.75C18.75 16.1642 19.0858 16.5 19.5 16.5H24C24.4142 16.5 24.75 16.1642 24.75 15.75V11.25C24.75 10.8358 24.4142 10.5 24 10.5ZM23.25 15H20.25V12H23.25V15Z" fill="#212D55"/>
<path d="M24 3.00006H19.5C19.0858 3.00006 18.75 3.33587 18.75 3.75006V8.25006C18.75 8.66425 19.0858 9.00006 19.5 9.00006H24C24.4142 9.00006 24.75 8.66425 24.75 8.25006V3.75006C24.75 3.33587 24.4142 3.00006 24 3.00006ZM23.25 7.50006H20.25V4.50006H23.25V7.50006Z" fill="#212D55"/>
<path d="M16.5 10.5H12C11.5858 10.5 11.25 10.8358 11.25 11.25V15.75C11.25 16.1642 11.5858 16.5 12 16.5H16.5C16.9142 16.5 17.25 16.1642 17.25 15.75V11.25C17.25 10.8358 16.9142 10.5 16.5 10.5ZM15.75 15H12.75V12H15.75V15Z" fill="#212D55"/>
<path d="M16.5 3.00006H12C11.5858 3.00006 11.25 3.33587 11.25 3.75006V8.25006C11.25 8.66425 11.5858 9.00006 12 9.00006H16.5C16.9142 9.00006 17.25 8.66425 17.25 8.25006V3.75006C17.25 3.33587 16.9142 3.00006 16.5 3.00006ZM15.75 7.50006H12.75V4.50006H15.75V7.50006Z" fill="#212D55"/>
<path d="M16.5 18H12C11.5858 18 11.25 18.3358 11.25 18.75V23.25C11.25 23.6642 11.5858 24 12 24H16.5C16.9142 24 17.25 23.6642 17.25 23.25V18.75C17.25 18.3358 16.9142 18 16.5 18ZM15.75 22.5H12.75V19.5H15.75V22.5Z" fill="#212D55"/>
<path d="M16.5 25.5001H12C11.5858 25.5001 11.25 25.8359 11.25 26.2501V30.7501C11.25 31.1642 11.5858 31.5001 12 31.5001H16.5C16.9142 31.5001 17.25 31.1642 17.25 30.7501V26.2501C17.25 25.8359 16.9142 25.5001 16.5 25.5001ZM15.75 30.0001H12.75V27.0001H15.75V30.0001Z" fill="#212D55"/>
<path d="M30.75 34.5H35.25C35.6642 34.5 36 34.1642 36 33.75V29.25C36 28.8358 35.6642 28.5 35.25 28.5H30.75C30.3358 28.5 30 28.8358 30 29.25V33.75C30 34.1642 30.3358 34.5 30.75 34.5ZM31.5 30H34.5V33H31.5V30Z" fill="#212D55"/>
<path d="M30.75 27H35.25C35.6642 27 36 26.6642 36 26.25V21.75C36 21.3358 35.6642 21 35.25 21H30.75C30.3358 21 30 21.3358 30 21.75V26.25C30 26.6642 30.3358 27 30.75 27ZM31.5 22.5H34.5V25.5H31.5V22.5Z" fill="#212D55"/>
<path d="M30.75 42H35.25C35.6642 42 36 41.6642 36 41.25V36.75C36 36.3358 35.6642 36 35.25 36H30.75C30.3358 36 30 36.3358 30 36.75V41.25C30 41.6642 30.3358 42 30.75 42ZM31.5 37.5H34.5V40.5H31.5V37.5Z" fill="#212D55"/>
<path d="M23.25 34.5H27.75C28.1642 34.5 28.5 34.1642 28.5 33.75V29.25C28.5 28.8358 28.1642 28.5 27.75 28.5H23.25C22.8358 28.5 22.5 28.8358 22.5 29.25V33.75C22.5 34.1642 22.8358 34.5 23.25 34.5ZM24 30H27V33H24V30Z" fill="#212D55"/>
<path d="M23.25 27H27.75C28.1642 27 28.5 26.6642 28.5 26.25V21.75C28.5 21.3358 28.1642 21 27.75 21H23.25C22.8358 21 22.5 21.3358 22.5 21.75V26.25C22.5 26.6642 22.8358 27 23.25 27ZM24 22.5H27V25.5H24V22.5Z" fill="#212D55"/>
<path d="M23.25 42H27.75C28.1642 42 28.5 41.6642 28.5 41.25V36.75C28.5 36.3358 28.1642 36 27.75 36H23.25C22.8358 36 22.5 36.3358 22.5 36.75V41.25C22.5 41.6642 22.8358 42 23.25 42ZM24 37.5H27V40.5H24V37.5Z" fill="#212D55"/>
</g>
<defs>
<clipPath id="clip0_360_6570">
<rect width="45" height="45" fill="white"/>
</clipPath>
</defs>
</svg>
