<svg width="45" height="45" viewBox="0 0 45 45" fill="none" xmlns="http://www.w3.org/2000/svg">
<path d="M29.0421 43.7838C28.9589 43.7839 28.8766 43.7668 28.8002 43.7338C28.7239 43.7007 28.6551 43.6524 28.5982 43.5917L25.6793 40.4788C25.5735 40.3661 25.5146 40.2174 25.5145 40.0628V38.5869C25.5145 38.4989 25.5337 38.4119 25.5707 38.332C25.6076 38.2521 25.6615 38.1812 25.7285 38.1242L26.7623 37.2412L25.8106 36.2311C25.7065 36.1207 25.6474 35.9752 25.6451 35.8234C25.6427 35.6716 25.6972 35.5244 25.7979 35.4108L26.7994 34.2791L25.9547 33.37C25.853 33.2606 25.795 33.1175 25.792 32.9681C25.789 32.8187 25.8411 32.6734 25.9383 32.56L26.8402 31.5086L25.7352 30.5964C25.666 30.5393 25.6102 30.4676 25.5719 30.3865C25.5337 30.3053 25.5138 30.2167 25.5139 30.1269V26.4728C23.9768 25.6909 22.75 24.4113 22.0335 22.8427C21.317 21.2741 21.153 19.5091 21.5683 17.8353C21.9837 16.1616 22.9538 14.6779 24.3205 13.6263C25.6872 12.5746 27.3699 12.017 29.0942 12.0444C30.8185 12.0718 32.4827 12.6825 33.8153 13.7771C35.1479 14.8716 36.0705 16.3853 36.4324 18.0714C36.7944 19.7575 36.5745 21.5164 35.8085 23.0615C35.0425 24.6066 33.7757 25.8465 32.2146 26.5792V39.9157C32.2146 40.052 32.1687 40.1843 32.0845 40.2915L29.5201 43.5515C29.4658 43.6208 29.3971 43.6774 29.3188 43.7175C29.2404 43.7576 29.1544 43.7802 29.0664 43.7838H29.0421ZM26.7313 39.822L29.0026 42.2435L30.9996 39.7052V26.1809C30.9996 26.0599 31.0357 25.9415 31.1033 25.8411C31.1709 25.7407 31.2669 25.6627 31.3791 25.6172C32.7529 25.0625 33.8926 24.05 34.6053 22.7511C35.318 21.4523 35.5598 19.947 35.2896 18.4903C35.0195 17.0336 34.254 15.7151 33.123 14.7582C31.992 13.8012 30.5649 13.2647 29.0836 13.2396C27.6023 13.2144 26.1578 13.7021 24.9949 14.6201C23.832 15.538 23.0222 16.8297 22.7027 18.2764C22.3832 19.7231 22.5737 21.2357 23.2418 22.5581C23.91 23.8804 25.0147 24.9311 26.3689 25.5321C26.4771 25.5793 26.5692 25.657 26.634 25.7557C26.6988 25.8544 26.7334 25.9698 26.7337 26.0879V29.8417L28.0935 30.9649C28.1558 31.0163 28.2073 31.0797 28.2448 31.1512C28.2824 31.2228 28.3053 31.3011 28.3123 31.3816C28.3193 31.4621 28.3101 31.5432 28.2854 31.6201C28.2607 31.697 28.2208 31.7683 28.1683 31.8296L27.2166 32.9394L28.0679 33.8552C28.1707 33.9658 28.2287 34.1106 28.2306 34.2616C28.2325 34.4125 28.1782 34.5588 28.0783 34.6719L27.0791 35.8012L28.0886 36.8727C28.145 36.9327 28.1886 37.0035 28.2168 37.0809C28.245 37.1582 28.2572 37.2405 28.2527 37.3228C28.2481 37.405 28.2269 37.4854 28.1904 37.5592C28.1538 37.633 28.1026 37.6986 28.0399 37.752L26.7325 38.8679L26.7313 39.822Z" fill="#212D55"/>
<path d="M31.6042 26.7854C31.4436 26.7854 31.2894 26.7218 31.1755 26.6085C31.0616 26.4953 30.9971 26.3416 30.9961 26.1809V26.1736C30.9968 26.0535 31.0331 25.9363 31.1003 25.8368C31.1676 25.7372 31.2628 25.6599 31.374 25.6144C31.4852 25.5689 31.6073 25.5574 31.7251 25.5813C31.8428 25.6052 31.9508 25.6634 32.0355 25.7486C32.1202 25.8337 32.1777 25.9421 32.2009 26.06C32.2241 26.1778 32.2118 26.2999 32.1657 26.4108C32.1195 26.5217 32.0416 26.6165 31.9417 26.6831C31.8417 26.7498 31.7243 26.7854 31.6042 26.7854Z" fill="#212D55"/>
<path d="M28.9697 20.8028C28.3816 20.8028 27.8067 20.6284 27.3177 20.3016C26.8287 19.9749 26.4475 19.5104 26.2224 18.9671C25.9974 18.4237 25.9385 17.8258 26.0532 17.249C26.168 16.6722 26.4512 16.1423 26.8671 15.7264C27.2829 15.3106 27.8128 15.0273 28.3896 14.9126C28.9664 14.7979 29.5643 14.8568 30.1077 15.0818C30.6511 15.3069 31.1155 15.688 31.4422 16.177C31.769 16.6661 31.9434 17.241 31.9434 17.8291C31.9426 18.6175 31.629 19.3734 31.0715 19.9309C30.514 20.4884 29.7582 20.802 28.9697 20.8028ZM28.9697 16.0717C28.6222 16.0717 28.2824 16.1748 27.9934 16.3679C27.7044 16.561 27.4791 16.8354 27.3461 17.1566C27.2131 17.4777 27.1783 17.8311 27.2461 18.172C27.3139 18.5129 27.4813 18.826 27.7271 19.0718C27.9728 19.3176 28.286 19.485 28.6269 19.5528C28.9678 19.6206 29.3212 19.5858 29.6423 19.4528C29.9634 19.3198 30.2379 19.0945 30.431 18.8055C30.6241 18.5165 30.7272 18.1767 30.7272 17.8291C30.7267 17.3632 30.5414 16.9164 30.2119 16.587C29.8824 16.2575 29.4357 16.0722 28.9697 16.0717Z" fill="#212D55"/>
<path d="M9.90678 39.9831C9.76782 39.9832 9.63301 39.9357 9.5248 39.8485C9.41659 39.7613 9.34151 39.6397 9.31205 39.5039L8.4084 35.3311C8.37543 35.1793 8.40175 35.0207 8.48198 34.8877L9.24698 33.6211C9.29246 33.5457 9.35374 33.4811 9.42661 33.4318C9.49947 33.3825 9.58217 33.3495 9.66901 33.3352L11.0068 33.1145L10.7156 31.7529C10.6839 31.605 10.7085 31.4505 10.7847 31.3197C10.8608 31.1889 10.9829 31.0912 11.1273 31.0457L12.5654 30.5933L12.3137 29.3771C12.2833 29.2308 12.3079 29.0785 12.3827 28.9491C12.4576 28.8198 12.5774 28.7226 12.7193 28.6759L14.0304 28.2442L13.556 26.8905C13.5264 26.8062 13.5157 26.7164 13.5248 26.6275C13.5338 26.5385 13.5623 26.4527 13.6083 26.3761L15.4886 23.2443C14.5768 21.7895 14.1821 20.0697 14.3684 18.3628C14.5546 16.656 15.311 15.0618 16.5152 13.8379C17.7194 12.6141 19.3011 11.832 21.0047 11.618C22.7083 11.4041 24.4342 11.7708 25.9037 12.659L25.9906 12.7125C26.066 12.7581 26.1384 12.8025 26.2114 12.8505C26.278 12.8947 26.3352 12.9515 26.3799 13.0178C26.4245 13.0841 26.4556 13.1585 26.4715 13.2369C26.4874 13.3152 26.4877 13.3959 26.4723 13.4743C26.457 13.5527 26.4264 13.6274 26.3823 13.694C26.3381 13.7606 26.2812 13.8178 26.215 13.8624C26.1487 13.9071 26.0742 13.9382 25.9959 13.9541C25.9176 13.97 25.8369 13.9702 25.7585 13.9549C25.6801 13.9396 25.6054 13.909 25.5388 13.8648C25.478 13.8259 25.4208 13.79 25.3564 13.7529L25.267 13.6982C24.0067 12.9401 22.5242 12.6379 21.0677 12.8423C19.6112 13.0467 18.2691 13.7452 17.2662 14.8209C16.2632 15.8966 15.6602 17.2843 15.5581 18.7515C15.456 20.2187 15.8611 21.6764 16.7054 22.8807C16.773 22.9769 16.8112 23.0907 16.8154 23.2083C16.8196 23.3258 16.7897 23.442 16.7291 23.5429L14.8002 26.7567L15.3858 28.426C15.4126 28.5023 15.4239 28.5832 15.419 28.6639C15.4142 28.7446 15.3933 28.8235 15.3575 28.8961C15.3218 28.9686 15.272 29.0333 15.2109 29.0863C15.1499 29.1394 15.0789 29.1797 15.0021 29.205L13.6175 29.6611L13.8704 30.8834C13.9009 31.0309 13.8755 31.1844 13.7992 31.3143C13.7229 31.4442 13.6012 31.5411 13.4575 31.5863L12.0224 32.0382L12.3319 33.4824C12.3495 33.563 12.3505 33.6464 12.3349 33.7274C12.3192 33.8085 12.2872 33.8855 12.2408 33.9537C12.1945 34.022 12.1347 34.0801 12.0652 34.1245C11.9956 34.169 11.9177 34.1988 11.8363 34.2121L10.1433 34.4913L9.64833 35.311L10.3513 38.554L13.3718 37.4108L20.3389 25.8215C20.4008 25.7174 20.4926 25.6343 20.6024 25.583C20.7121 25.5317 20.8347 25.5146 20.9543 25.5338C22.2611 25.7427 23.6004 25.5381 24.7854 24.9488C24.857 24.9126 24.935 24.8909 25.015 24.8849C25.095 24.879 25.1754 24.889 25.2516 24.9142C25.3277 24.9395 25.3981 24.9796 25.4587 25.0322C25.5193 25.0848 25.5689 25.1489 25.6046 25.2208C25.6403 25.2926 25.6614 25.3708 25.6668 25.4509C25.6721 25.531 25.6615 25.6113 25.6357 25.6872C25.6099 25.7632 25.5692 25.8333 25.5162 25.8935C25.4631 25.9537 25.3987 26.0028 25.3266 26.038C24.0427 26.6767 22.6037 26.9369 21.1775 26.7884L14.3058 38.2208C14.2358 38.3373 14.1288 38.427 14.0018 38.4756L10.1239 39.9436C10.0546 39.9702 9.98098 39.9836 9.90678 39.9831Z" fill="#212D55"/>
<path d="M20.863 26.7416C20.7557 26.7411 20.6504 26.7122 20.5578 26.6578C20.4653 26.6034 20.3888 26.5255 20.3361 26.432C20.2834 26.3385 20.2564 26.2327 20.2579 26.1254C20.2593 26.018 20.2891 25.913 20.3443 25.8209L20.3486 25.8142C20.3901 25.746 20.4446 25.6866 20.5091 25.6394C20.5736 25.5923 20.6467 25.5583 20.7243 25.5394C20.802 25.5205 20.8825 25.5171 20.9615 25.5294C21.0404 25.5416 21.1162 25.5693 21.1844 25.6108C21.2526 25.6523 21.312 25.7069 21.3592 25.7714C21.4063 25.8359 21.4403 25.909 21.4592 25.9866C21.4781 26.0642 21.4815 26.1448 21.4693 26.2237C21.457 26.3027 21.4293 26.3784 21.3878 26.4467C21.3329 26.5367 21.2558 26.611 21.1639 26.6627C21.072 26.7143 20.9684 26.7415 20.863 26.7416Z" fill="#212D55"/>
<path d="M31.2425 17.7817C31.1058 17.7832 30.9725 17.7386 30.8643 17.6551C30.756 17.5716 30.679 17.4541 30.6458 17.3214C30.6125 17.1888 30.6249 17.0488 30.681 16.9241C30.7371 16.7994 30.8336 16.6973 30.9549 16.6342C32.1538 15.8201 33.1008 14.6867 33.6887 13.3622C34.2766 12.0377 34.482 10.5751 34.2815 9.13992C34.081 7.70475 33.4827 6.35437 32.5543 5.2417C31.6259 4.12904 30.4046 3.29852 29.0285 2.84421C27.6525 2.38989 26.1767 2.32992 24.7683 2.67109C23.36 3.01226 22.0752 3.74094 21.0596 4.77461C20.044 5.80828 19.3381 7.10566 19.0219 8.51984C18.7056 9.93401 18.7916 11.4085 19.2701 12.7763C19.3003 12.8523 19.3148 12.9336 19.3128 13.0154C19.3108 13.0972 19.2924 13.1777 19.2586 13.2521C19.2248 13.3266 19.1763 13.3935 19.116 13.4488C19.0557 13.5041 18.9849 13.5466 18.9078 13.5739C18.8308 13.6012 18.7489 13.6127 18.6673 13.6076C18.5857 13.6026 18.5059 13.5811 18.4328 13.5445C18.3596 13.5079 18.2946 13.4569 18.2417 13.3946C18.1887 13.3323 18.1488 13.26 18.1244 13.1819C17.5675 11.5957 17.4669 9.88507 17.834 8.24451C18.2011 6.60395 19.0212 5.09932 20.201 3.90174C21.3808 2.70416 22.873 1.86168 24.5079 1.47013C26.1428 1.07858 27.8548 1.15366 29.4491 1.68684C31.0435 2.22001 32.4562 3.18989 33.5267 4.48616C34.5971 5.78243 35.2824 7.35308 35.5044 9.01948C35.7265 10.6859 35.4765 12.3812 34.7828 13.9125C34.0892 15.4439 32.9797 16.7498 31.5806 17.6819C31.4804 17.748 31.3626 17.7827 31.2425 17.7817Z" fill="#212D55"/>
</svg>
