<svg width="191" height="94" viewBox="0 0 191 94" fill="none" xmlns="http://www.w3.org/2000/svg">
<g id="&#208;&#155;&#208;&#190;&#208;&#179;&#208;&#190; 2 1" clip-path="url(#clip0_360_134)">
<g id="Group 254">
<path id="Vector" d="M96.7394 45.5341L53.6728 5.55286C52.8007 4.74327 51.3868 4.74327 50.5147 5.55286L7.44811 45.5341C6.57604 46.3437 6.57604 47.6563 7.44811 48.4659L50.5147 88.4471C51.3868 89.2567 52.8007 89.2567 53.6728 88.4471L96.7394 48.4659C97.6115 47.6563 97.6115 46.3437 96.7394 45.5341Z" fill="url(#paint0_linear_360_134)"/>
<path id="Vector_2" d="M68.3123 74.0381C62.8999 76.6499 64.1149 76.5491 57.4981 77.0687C50.8808 77.5879 44.2234 76.5383 38.2784 74.0381C32.3334 71.5379 27.3382 67.6872 23.8581 62.9216C20.3781 58.156 18.552 52.6657 18.5864 47.0717C18.6209 41.4778 20.5145 36.0037 24.0531 31.2687C27.5917 26.5336 32.6339 22.7267 38.6094 20.2786C44.5849 17.8305 51.2551 16.8389 57.8652 17.4161C64.4754 17.9932 66.1628 18.3965 71.4141 21.8249L68.3123 31.9022C64.914 29.6837 60.8463 28.31 56.569 27.9366C52.2916 27.5631 47.9752 28.2047 44.1085 29.7889C40.2418 31.373 36.979 33.8365 34.6892 36.9005C32.3994 39.9645 31.174 43.5068 31.1518 47.1267C31.1294 50.7464 32.3111 54.2991 34.563 57.383C36.815 60.4669 40.0473 62.9584 43.8943 64.5764C47.7413 66.194 52.0493 66.8732 56.331 66.5371C60.6132 66.201 64.6974 64.8629 68.1228 62.6744L68.3123 74.0381Z" fill="#D0D0D0"/>
</g>
<path id="Vector_3" d="M93.8865 19.1953C92.8275 19.1953 92.0077 19.566 91.4266 20.3075C90.846 21.0434 90.5554 22.0713 90.5554 23.3913C90.5554 26.1382 91.6658 27.5116 93.8865 27.5116C94.8179 27.5116 95.9464 27.2953 97.2715 26.8628V29.0535C96.1826 29.4748 94.9666 29.6854 93.6229 29.6854C91.6927 29.6854 90.2165 29.1434 89.1941 28.0592C88.1713 26.9695 87.6602 25.4079 87.6602 23.3745C87.6602 22.0938 87.9111 20.9731 88.4135 20.0126C88.9158 19.0464 89.6358 18.3078 90.5735 17.7966C91.5176 17.2798 92.6216 17.0214 93.8865 17.0214C95.175 17.0214 96.4698 17.3107 97.7709 17.8893L96.863 20.0126C96.367 19.7935 95.8681 19.6025 95.3657 19.4397C94.8634 19.2768 94.3703 19.1953 93.8865 19.1953ZM108.281 20.0969V22.0264H104.959V29.5169H102.191V22.0264H98.8597V20.0969H108.281ZM115.751 29.6854C114.559 29.6854 113.624 29.2838 112.946 28.4805H112.801C112.897 29.2669 112.946 29.7219 112.946 29.8455V33.6624H110.178V20.0969H112.429L112.819 21.3186H112.946C113.593 20.3861 114.553 19.9199 115.823 19.9199C117.021 19.9199 117.959 20.3496 118.637 21.2091C119.315 22.0685 119.653 23.2621 119.653 24.79C119.653 25.7955 119.493 26.669 119.172 27.4104C118.858 28.1519 118.407 28.7165 117.82 29.104C117.233 29.4916 116.543 29.6854 115.751 29.6854ZM114.934 21.9758C114.25 21.9758 113.751 22.1724 113.436 22.5656C113.121 22.9532 112.958 23.5964 112.946 24.4951V24.7732C112.946 25.7843 113.106 26.5089 113.427 26.947C113.754 27.3852 114.268 27.6043 114.97 27.6043C116.21 27.6043 116.831 26.6549 116.831 24.7563C116.831 23.8295 116.676 23.1358 116.367 22.6752C116.065 22.2089 115.587 21.9758 114.934 21.9758ZM124.146 24.79C124.146 25.7225 124.309 26.4274 124.636 26.9049C124.969 27.3824 125.507 27.6211 126.252 27.6211C126.99 27.6211 127.519 27.3852 127.84 26.9133C128.167 26.4359 128.33 25.7281 128.33 24.79C128.33 23.8576 128.167 23.1582 127.84 22.692C127.513 22.2258 126.978 21.9927 126.233 21.9927C125.495 21.9927 124.963 22.2258 124.636 22.692C124.309 23.1526 124.146 23.852 124.146 24.79ZM131.162 24.79C131.162 26.3235 130.726 27.5228 129.855 28.3879C128.984 29.2529 127.77 29.6854 126.215 29.6854C125.241 29.6854 124.382 29.4888 123.638 29.0956C122.893 28.6968 122.321 28.1267 121.922 27.3852C121.523 26.6437 121.323 25.7787 121.323 24.79C121.323 23.2509 121.756 22.0544 122.621 21.2006C123.486 20.3468 124.703 19.9199 126.27 19.9199C127.244 19.9199 128.103 20.1165 128.847 20.5097C129.592 20.9029 130.163 21.4675 130.562 22.2033C130.962 22.9392 131.162 23.8014 131.162 24.79ZM136.126 20.0969V23.8211C136.126 24.2143 136.057 25.1748 135.917 26.7027L140.601 20.0969H143.931V29.5169H141.254V25.759C141.254 25.0906 141.315 24.1469 141.436 22.9279L136.77 29.5169H133.448V20.0969H136.126ZM155.24 20.0969V22.0264H151.918V29.5169H149.15V22.0264H145.819V20.0969H155.24ZM161.339 21.7483C160.752 21.7483 160.293 21.9224 159.96 22.2707C159.627 22.6134 159.437 23.1021 159.388 23.7368H163.272C163.26 23.1021 163.082 22.6134 162.737 22.2707C162.392 21.9224 161.926 21.7483 161.339 21.7483ZM161.73 29.6854C160.096 29.6854 158.819 29.2669 157.9 28.43C156.98 27.593 156.52 26.4078 156.52 24.8743C156.52 23.2959 156.943 22.0769 157.791 21.2175C158.644 20.3525 159.821 19.9199 161.321 19.9199C162.755 19.9199 163.872 20.2991 164.67 21.0574C165.469 21.8157 165.868 22.8633 165.868 24.2002V25.4473H159.325C159.355 26.1775 159.588 26.7476 160.024 27.1577C160.459 27.5677 161.07 27.7728 161.857 27.7728C162.468 27.7728 163.045 27.7138 163.59 27.5958C164.135 27.4779 164.704 27.2897 165.297 27.0313V29.0198C164.812 29.2445 164.295 29.4102 163.744 29.5169C163.194 29.6293 162.522 29.6854 161.73 29.6854ZM177.204 29.5169H174.436V22.0264H171.886C171.692 24.1328 171.456 25.7056 171.178 26.7448C170.899 27.7784 170.527 28.5283 170.061 28.9945C169.602 29.4551 168.996 29.6854 168.246 29.6854C167.605 29.6854 167.079 29.5956 166.667 29.4158V27.3599C166.964 27.4722 167.26 27.5284 167.556 27.5284C167.901 27.5284 168.189 27.2981 168.419 26.8375C168.655 26.3769 168.863 25.6101 169.045 24.5373C169.232 23.4588 169.393 21.9786 169.526 20.0969H177.204V29.5169ZM182.886 23.7368H184.837C186.398 23.7368 187.554 23.9671 188.304 24.4277C189.055 24.8883 189.43 25.5848 189.43 26.5173C189.43 28.5171 187.935 29.5169 184.946 29.5169H180.118V20.0969H182.886V23.7368ZM186.662 26.551C186.662 26.1859 186.504 25.9219 186.19 25.759C185.875 25.5961 185.406 25.5146 184.783 25.5146H182.886V27.7391H184.819C186.047 27.7391 186.662 27.3431 186.662 26.551Z" fill="#212D55"/>
<path id="Vector_4" d="M108.067 38.0975C107.378 38.0975 106.837 38.3241 106.442 38.7773C106.047 39.2305 105.85 39.856 105.85 40.6538C105.85 41.4889 106.039 42.1206 106.417 42.5489C106.798 42.9773 107.348 43.1915 108.067 43.1915C108.378 43.1915 108.679 43.1636 108.97 43.1077C109.261 43.0487 109.563 42.9743 109.878 42.8842V43.8388C109.302 44.0405 108.65 44.1414 107.921 44.1414C106.848 44.1414 106.024 43.8403 105.449 43.2381C104.874 42.6328 104.586 41.7682 104.586 40.6445C104.586 39.9367 104.725 39.3174 105.002 38.7866C105.283 38.2558 105.688 37.8491 106.216 37.5667C106.745 37.2842 107.365 37.1429 108.077 37.1429C108.826 37.1429 109.518 37.2888 110.153 37.5806L109.722 38.5073C109.474 38.3986 109.212 38.3039 108.934 38.2232C108.661 38.1394 108.371 38.0975 108.067 38.0975ZM115.5 38.8984V39.7551H113.694V44.0483H112.511V39.7551H110.705V38.8984H115.5ZM119.382 44.1414C118.68 44.1414 118.135 43.9071 117.747 43.4383H117.677C117.724 43.8729 117.747 44.1368 117.747 44.2299V46.3393H116.569V38.8984H117.522C117.548 38.9946 117.603 39.2243 117.687 39.5875H117.747C118.115 39.066 118.667 38.8052 119.402 38.8052C120.094 38.8052 120.633 39.0381 121.017 39.5037C121.405 39.9693 121.599 40.6228 121.599 41.464C121.599 42.3053 121.402 42.9618 121.007 43.4337C120.616 43.9055 120.074 44.1414 119.382 44.1414ZM119.097 39.6993C118.628 39.6993 118.286 39.8265 118.068 40.0811C117.854 40.3356 117.747 40.7423 117.747 41.3011V41.464C117.747 42.0911 117.854 42.5459 118.068 42.8284C118.282 43.1077 118.631 43.2474 119.117 43.2474C119.525 43.2474 119.839 43.0922 120.059 42.7818C120.28 42.4713 120.39 42.029 120.39 41.4547C120.39 40.8773 120.28 40.4412 120.059 40.1463C119.842 39.8483 119.521 39.6993 119.097 39.6993ZM127.889 41.464C127.889 42.3053 127.657 42.9618 127.192 43.4337C126.727 43.9055 126.08 44.1414 125.251 44.1414C124.733 44.1414 124.274 44.0328 123.877 43.8155C123.478 43.5982 123.173 43.2862 122.958 42.8796C122.745 42.4729 122.638 42.0011 122.638 41.464C122.638 40.629 122.868 39.9771 123.33 39.5083C123.791 39.0396 124.442 38.8052 125.281 38.8052C126.083 38.8052 126.718 39.0458 127.187 39.527C127.655 40.005 127.889 40.6507 127.889 41.464ZM123.851 41.464C123.851 42.6529 124.325 43.2474 125.271 43.2474C126.207 43.2474 126.675 42.6529 126.675 41.464C126.675 40.2875 126.203 39.6993 125.261 39.6993C124.766 39.6993 124.406 39.8514 124.182 40.1556C123.962 40.4598 123.851 40.8959 123.851 41.464ZM130.377 38.8984V41.5385C130.377 41.8458 130.35 42.2975 130.297 42.8935L133.08 38.8984H134.519V44.0483H133.386V41.4547C133.386 41.3119 133.394 41.0806 133.411 40.7609C133.431 40.4412 133.448 40.2083 133.461 40.0625L130.687 44.0483H129.248V38.8984H130.377ZM139.385 43.0006L139.45 42.7771C139.587 42.3146 139.706 41.9591 139.806 41.7108L141.05 38.8984H142.62V44.0483H141.531V39.8902L141.441 40.1696C141.291 40.6694 141.164 41.0372 141.06 41.2731L139.846 44.0483H138.954L137.74 41.2545C137.573 40.8509 137.419 40.3962 137.278 39.8902V44.0483H136.2V38.8984H137.76L138.963 41.627C139.071 41.8785 139.211 42.3363 139.385 43.0006ZM151.789 40.2161C151.789 40.8246 151.406 41.1924 150.64 41.3197V41.3569C151.068 41.4035 151.396 41.5292 151.623 41.7341C151.851 41.939 151.964 42.2044 151.964 42.5303C151.964 43.0177 151.763 43.3933 151.362 43.6572C150.964 43.9179 150.384 44.0483 149.622 44.0483H146.974V38.8984H149.612C151.063 38.8984 151.789 39.3376 151.789 40.2161ZM150.755 42.4652C150.755 42.2168 150.652 42.0414 150.444 41.939C150.237 41.8335 149.926 41.7806 149.511 41.7806H148.152V43.2381H149.542C150.351 43.2381 150.755 42.9804 150.755 42.4652ZM150.61 40.3092C150.61 40.1043 150.523 39.9569 150.349 39.8669C150.179 39.7738 149.923 39.7272 149.582 39.7272H148.152V40.9658H149.406C149.801 40.9658 150.1 40.9192 150.304 40.8261C150.508 40.7299 150.61 40.5576 150.61 40.3092ZM160.411 44.0483H159.222V39.7551H157.692C157.599 40.8603 157.471 41.7232 157.311 42.3441C157.154 42.9649 156.946 43.4181 156.689 43.7037C156.435 43.9893 156.104 44.1321 155.696 44.1321C155.438 44.1321 155.223 44.098 155.049 44.0297V43.1729C155.172 43.2164 155.296 43.2381 155.42 43.2381C155.761 43.2381 156.028 42.8827 156.223 42.1718C156.42 41.4578 156.574 40.3667 156.684 38.8984H160.411V44.0483ZM169.509 41.464C169.509 42.3084 169.287 42.9665 168.842 43.4383C168.4 43.9071 167.784 44.1414 166.991 44.1414C166.262 44.1414 165.682 43.9428 165.251 43.5454C164.823 43.145 164.574 42.5722 164.503 41.8272H163.28V44.0483H162.101V38.8984H163.28V40.9658H164.514C164.597 40.2829 164.855 39.7521 165.286 39.3733C165.72 38.9946 166.296 38.8052 167.011 38.8052C167.78 38.8052 168.389 39.0458 168.837 39.527C169.285 40.005 169.509 40.6507 169.509 41.464ZM165.707 41.464C165.707 42.0507 165.807 42.4946 166.008 42.7957C166.212 43.0969 166.543 43.2474 167.001 43.2474C167.456 43.2474 167.786 43.0969 167.99 42.7957C168.194 42.4946 168.295 42.0507 168.295 41.464C168.295 40.8835 168.194 40.4443 167.99 40.1463C167.786 39.8483 167.456 39.6993 167.001 39.6993C166.543 39.6993 166.212 39.8483 166.008 40.1463C165.807 40.4443 165.707 40.8835 165.707 41.464ZM170.558 40.9565C170.558 39.8079 170.766 38.9248 171.184 38.307C171.606 37.6893 172.274 37.2919 173.191 37.115C173.883 36.9846 174.68 36.8574 175.583 36.7332L175.748 37.697C174.652 37.8523 173.85 37.9733 173.341 38.0602C172.816 38.1502 172.436 38.3505 172.203 38.6609C171.972 38.9713 171.838 39.4385 171.801 40.0625H171.876C172.067 39.8048 172.316 39.6062 172.624 39.4665C172.931 39.3237 173.261 39.2523 173.612 39.2523C174.294 39.2523 174.826 39.4525 175.207 39.8529C175.588 40.2534 175.779 40.8153 175.779 41.5385C175.779 42.3673 175.546 43.0084 175.082 43.4616C174.62 43.9148 173.98 44.1414 173.16 44.1414C172.348 44.1414 171.711 43.862 171.25 43.3033C170.788 42.7445 170.558 41.9622 170.558 40.9565ZM173.241 43.2474C174.117 43.2474 174.555 42.7135 174.555 41.6456C174.555 40.615 174.159 40.0997 173.366 40.0997C173.149 40.0997 172.938 40.1432 172.734 40.2301C172.53 40.317 172.341 40.4319 172.167 40.5747C171.997 40.7174 171.865 40.8649 171.771 41.017C171.771 41.7496 171.896 42.3053 172.147 42.684C172.398 43.0596 172.763 43.2474 173.241 43.2474ZM178.316 40.9565H179.44C180.216 40.9565 180.79 41.0806 181.16 41.329C181.532 41.5773 181.718 41.9498 181.718 42.4465C181.718 42.9773 181.523 43.3778 181.135 43.6479C180.751 43.9148 180.186 44.0483 179.44 44.0483H177.138V38.8984H178.316V40.9565ZM180.548 42.4745C180.548 42.2168 180.445 42.0368 180.238 41.9343C180.034 41.8319 179.739 41.7806 179.355 41.7806H178.316V43.2381H179.204C179.679 43.2381 180.022 43.176 180.232 43.0519C180.443 42.9277 180.548 42.7352 180.548 42.4745ZM183.774 44.0483H182.59V38.8984H183.774V44.0483ZM186.698 41.4174L184.837 38.8984H186.181L187.445 40.7004L188.719 38.8984H190.054L188.187 41.4174L190.148 44.0483H188.815L187.445 42.1206L186.081 44.0483H184.747L186.698 41.4174ZM117.235 52.0674V54.1349H119.849V52.0674H121.027V57.2174H119.849V54.9964H117.235V57.2174H116.057V52.0674H117.235ZM126.189 57.2174L125.953 56.5004H125.913C125.645 56.8137 125.376 57.028 125.105 57.1429C124.834 57.2546 124.487 57.3105 124.062 57.3105C123.517 57.3105 123.09 57.1738 122.783 56.9009C122.479 56.6275 122.326 56.2411 122.326 55.7415C122.326 55.2107 122.539 54.8102 122.963 54.54C123.388 54.2698 124.035 54.1227 124.905 54.0977L125.862 54.0695V53.7948C125.862 53.466 125.779 53.2208 125.612 53.0591C125.448 52.8948 125.192 52.8126 124.845 52.8126C124.56 52.8126 124.287 52.8512 124.027 52.9288C123.766 53.0065 123.515 53.0982 123.274 53.2035L122.893 52.4211C123.194 52.2754 123.523 52.1655 123.881 52.0905C124.239 52.0133 124.577 51.9743 124.894 51.9743C125.6 51.9743 126.132 52.1173 126.49 52.4025C126.851 52.6881 127.031 53.1368 127.031 53.7485V57.2174H126.189ZM124.433 56.4722C124.861 56.4722 125.204 56.3623 125.461 56.1416C125.722 55.9182 125.853 55.6062 125.853 55.2057V54.7589L125.14 54.7866C124.585 54.8052 124.181 54.8924 123.926 55.0477C123.675 55.1998 123.55 55.4341 123.55 55.7506C123.55 55.9804 123.624 56.1589 123.771 56.286C123.918 56.4104 124.139 56.4722 124.433 56.4722ZM133.526 52.0674V57.2174H132.343V52.9334H129.855V57.2174H128.677V52.0674H133.526ZM138.031 57.3105C137.329 57.3105 136.783 57.0762 136.395 56.6075H136.325C136.372 57.0421 136.395 57.3059 136.395 57.399V59.5084H135.217V52.0674H136.17C136.197 52.1636 136.252 52.3934 136.335 52.7567H136.395C136.763 52.2349 137.315 51.9743 138.051 51.9743C138.743 51.9743 139.281 52.2072 139.666 52.6727C140.054 53.1386 140.247 53.7921 140.247 54.6331C140.247 55.4745 140.05 56.1307 139.656 56.6025C139.265 57.0748 138.723 57.3105 138.031 57.3105ZM137.745 52.8684C137.277 52.8684 136.934 52.9956 136.717 53.2503C136.502 53.5046 136.395 53.9115 136.395 54.47V54.6331C136.395 55.2602 136.502 55.7148 136.717 55.9972C136.93 56.2769 137.28 56.4163 137.765 56.4163C138.173 56.4163 138.487 56.2615 138.708 55.9509C138.929 55.6403 139.039 55.198 139.039 54.624C139.039 54.0464 138.929 53.6104 138.708 53.3153C138.49 53.0174 138.169 52.8684 137.745 52.8684ZM145.088 57.2174L144.852 56.5004H144.812C144.544 56.8137 144.275 57.028 144.004 57.1429C143.734 57.2546 143.386 57.3105 142.961 57.3105C142.416 57.3105 141.99 57.1738 141.682 56.9009C141.378 56.6275 141.226 56.2411 141.226 55.7415C141.226 55.2107 141.438 54.8102 141.863 54.54C142.287 54.2698 142.934 54.1227 143.804 54.0977L144.762 54.0695V53.7948C144.762 53.466 144.678 53.2208 144.511 53.0591C144.347 52.8948 144.091 52.8126 143.743 52.8126C143.459 52.8126 143.187 52.8512 142.926 52.9288C142.665 53.0065 142.414 53.0982 142.174 53.2035L141.792 52.4211C142.093 52.2754 142.423 52.1655 142.781 52.0905C143.138 52.0133 143.476 51.9743 143.794 51.9743C144.499 51.9743 145.031 52.1173 145.389 52.4025C145.75 52.6881 145.93 53.1368 145.93 53.7485V57.2174H145.088ZM143.332 56.4722C143.76 56.4722 144.103 56.3623 144.36 56.1416C144.621 55.9182 144.751 55.6062 144.751 55.2057V54.7589L144.039 54.7866C143.484 54.8052 143.08 54.8924 142.826 55.0477C142.575 55.1998 142.45 55.4341 142.45 55.7506C142.45 55.9804 142.523 56.1589 142.67 56.286C142.817 56.4104 143.038 56.4722 143.332 56.4722ZM152.391 53.3852C152.391 53.9937 152.008 54.3615 151.242 54.4887V54.5259C151.67 54.5727 151.998 54.6985 152.225 54.9033C152.452 55.1081 152.566 55.3733 152.566 55.6993C152.566 56.1866 152.366 56.5626 151.964 56.8264C151.566 57.0871 150.986 57.2174 150.224 57.2174H147.575V52.0674H150.214C151.665 52.0674 152.391 52.5065 152.391 53.3852ZM151.357 55.6344C151.357 55.386 151.254 55.2107 151.046 55.1081C150.839 55.0027 150.528 54.9496 150.114 54.9496H148.754V56.4073H150.143C150.953 56.4073 151.357 56.1493 151.357 55.6344ZM151.212 53.4783C151.212 53.2735 151.125 53.1259 150.951 53.036C150.78 52.9429 150.525 52.8961 150.183 52.8961H148.754V54.1349H150.008C150.403 54.1349 150.702 54.0881 150.906 53.9951C151.11 53.8988 151.212 53.7267 151.212 53.4783ZM158.344 57.2174H157.155V52.9243H155.626C155.532 54.0291 155.405 54.8924 155.244 55.5131C155.087 56.1339 154.88 56.5871 154.623 56.8727C154.368 57.1584 154.038 57.3014 153.63 57.3014C153.372 57.3014 153.156 57.2669 152.982 57.1988V56.3419C153.106 56.3855 153.23 56.4073 153.354 56.4073C153.695 56.4073 153.962 56.0517 154.156 55.341C154.354 54.6267 154.507 53.5359 154.618 52.0674H158.344V57.2174ZM162.457 57.3105C161.594 57.3105 160.919 57.0775 160.431 56.6121C159.946 56.1434 159.703 55.4991 159.703 54.6798C159.703 53.8384 159.929 53.1772 160.38 52.6959C160.832 52.215 161.452 51.9743 162.242 51.9743C162.974 51.9743 163.552 52.1809 163.977 52.5937C164.402 53.0065 164.614 53.5745 164.614 54.2979V54.8892H160.917C160.934 55.3892 161.079 55.7738 161.354 56.044C161.628 56.311 162.014 56.4445 162.512 56.4445C162.84 56.4445 163.144 56.4163 163.425 56.3605C163.709 56.3015 164.014 56.2052 164.338 56.0721V56.9613C164.05 57.0884 163.759 57.1788 163.465 57.2315C163.171 57.2841 162.835 57.3105 162.457 57.3105ZM162.242 52.803C161.867 52.803 161.566 52.9134 161.339 53.1336C161.115 53.3543 160.981 53.6754 160.937 54.0977H163.455C163.448 53.6722 163.338 53.3511 163.124 53.1336C162.91 52.9134 162.616 52.803 162.242 52.803ZM167.132 52.0674V54.1349H169.745V52.0674H170.923V57.2174H169.745V54.9964H167.132V57.2174H165.953V52.0674H167.132ZM173.742 52.0674V54.7075C173.742 55.015 173.716 55.4668 173.662 56.0626L176.446 52.0674H177.886V57.2174H176.752V54.624C176.752 54.4809 176.76 54.2498 176.777 53.9301C176.797 53.6104 176.814 53.3775 176.827 53.2317L174.054 57.2174H172.614V52.0674H173.742ZM180.132 57.2174H178.813L180.358 55.1081C179.983 55.0086 179.689 54.832 179.475 54.5772C179.261 54.3197 179.154 54.0014 179.154 53.6227C179.154 53.1354 179.342 52.7549 179.716 52.482C180.091 52.2054 180.602 52.0674 181.251 52.0674H183.779V57.2174H182.595V55.2339H181.476L180.132 57.2174ZM180.303 53.6318C180.303 53.8961 180.41 54.0945 180.624 54.228C180.841 54.3583 181.132 54.4237 181.496 54.4237H182.595V52.8961H181.311C180.99 52.8961 180.741 52.9601 180.564 53.0873C180.39 53.2144 180.303 53.3961 180.303 53.6318ZM186.698 54.5868L184.837 52.0674H186.181L187.445 53.8693L188.719 52.0674H190.054L188.187 54.5868L190.148 57.2174H188.815L187.445 55.2897L186.081 57.2174H184.747L186.698 54.5868Z" fill="#212D55"/>
</g>
<defs>
<linearGradient id="paint0_linear_360_134" x1="75.2062" y1="25.5436" x2="32.4115" y2="71.6409" gradientUnits="userSpaceOnUse">
<stop stop-color="#212D55"/>
<stop offset="0.491587" stop-color="#212D55" stop-opacity="0.38"/>
<stop offset="1" stop-color="#212D55"/>
</linearGradient>
<clipPath id="clip0_360_134">
<rect width="190.279" height="94" fill="white"/>
</clipPath>
</defs>
</svg>
