<svg width="94" height="86" viewBox="0 0 94 86" fill="none" xmlns="http://www.w3.org/2000/svg">
<path d="M91.7394 41.5341L48.6728 1.55286C47.8007 0.743265 46.3868 0.743265 45.5147 1.55286L2.44811 41.5341C1.57604 42.3437 1.57604 43.6563 2.44811 44.4659L45.5147 84.4471C46.3868 85.2567 47.8007 85.2567 48.6728 84.4471L91.7394 44.4659C92.6115 43.6563 92.6115 42.3437 91.7394 41.5341Z" fill="url(#paint0_linear_4284_2)"/>
<path d="M63.3123 70.0381C57.8999 72.6499 59.1149 72.5491 52.4981 73.0687C45.8808 73.5879 39.2234 72.5383 33.2784 70.0381C27.3334 67.5379 22.3382 63.6872 18.8581 58.9216C15.3781 54.156 13.552 48.6657 13.5864 43.0717C13.6209 37.4778 15.5145 32.0037 19.0531 27.2687C22.5917 22.5336 27.6339 18.7267 33.6094 16.2786C39.5849 13.8305 46.2551 12.8389 52.8652 13.4161C59.4754 13.9932 61.1628 14.3965 66.4141 17.8249L63.3123 27.9022C59.914 25.6837 55.8463 24.31 51.569 23.9366C47.2916 23.5631 42.9752 24.2047 39.1085 25.7889C35.2418 27.373 31.979 29.8365 29.6892 32.9005C27.3994 35.9645 26.174 39.5068 26.1518 43.1267C26.1294 46.7464 27.3111 50.2991 29.563 53.383C31.815 56.4669 35.0473 58.9584 38.8943 60.5764C42.7413 62.194 47.0493 62.8732 51.331 62.5371C55.6132 62.201 59.6974 60.8629 63.1228 58.6744L63.3123 70.0381Z" fill="#D0D0D0"/>
<defs>
<linearGradient id="paint0_linear_4284_2" x1="70.2062" y1="21.5436" x2="27.4115" y2="67.6409" gradientUnits="userSpaceOnUse">
<stop stop-color="#212D55"/>
<stop offset="0.491587" stop-color="#212D55" stop-opacity="0.38"/>
<stop offset="1" stop-color="#212D55"/>
</linearGradient>
</defs>
</svg>
