<svg width="45" height="45" viewBox="0 0 45 45" fill="none" xmlns="http://www.w3.org/2000/svg">
<path d="M31.0661 38.9688C30.9048 38.9688 30.7501 38.9047 30.6361 38.7907C30.522 38.6766 30.458 38.5219 30.458 38.3607V6.05674L22.7508 2.82342L16.2787 5.36957V38.3607C16.2787 38.5219 16.2146 38.6766 16.1006 38.7907C15.9866 38.9047 15.8319 38.9688 15.6706 38.9688C15.5093 38.9688 15.3547 38.9047 15.2406 38.7907C15.1266 38.6766 15.0625 38.5219 15.0625 38.3607V4.95484C15.0625 4.83267 15.0992 4.71331 15.168 4.61232C15.2367 4.51134 15.3343 4.43341 15.448 4.38869L22.5355 1.60052C22.683 1.54241 22.8473 1.54416 22.9934 1.60538L31.3014 5.09167C31.4119 5.13802 31.5062 5.21596 31.5725 5.31571C31.6388 5.41545 31.6742 5.53256 31.6742 5.65234V38.3607C31.6742 38.5219 31.6101 38.6766 31.4961 38.7907C31.382 38.9047 31.2274 38.9688 31.0661 38.9688Z" fill="#212D55"/>
<path d="M22.7565 38.9688C22.5953 38.9688 22.4406 38.9047 22.3265 38.7907C22.2125 38.6767 22.1484 38.522 22.1484 38.3607V2.1667C22.1484 2.00542 22.2125 1.85075 22.3265 1.7367C22.4406 1.62266 22.5953 1.55859 22.7565 1.55859C22.9178 1.55859 23.0725 1.62266 23.1865 1.7367C23.3006 1.85075 23.3647 2.00542 23.3647 2.1667V38.3607C23.3647 38.522 23.3006 38.6767 23.1865 38.7907C23.0725 38.9047 22.9178 38.9688 22.7565 38.9688Z" fill="#212D55"/>
<path d="M40.883 38.9688C40.7218 38.9688 40.5671 38.9047 40.453 38.7907C40.339 38.6766 40.2749 38.522 40.2749 38.3607V19.2478L34.3289 15.7883H31.0651C30.9039 15.7883 30.7492 15.7242 30.6351 15.6102C30.5211 15.4961 30.457 15.3415 30.457 15.1802C30.457 15.0189 30.5211 14.8642 30.6351 14.7502C30.7492 14.6362 30.9039 14.5721 31.0651 14.5721H34.493C34.5999 14.5725 34.7048 14.601 34.7971 14.6548L41.1877 18.3728C41.28 18.426 41.3566 18.5026 41.41 18.5948C41.4633 18.687 41.4915 18.7916 41.4918 18.8982V38.3576C41.4922 38.4378 41.4767 38.5172 41.4463 38.5914C41.4159 38.6656 41.3711 38.733 41.3145 38.7898C41.2579 38.8466 41.1907 38.8917 41.1167 38.9224C41.0426 38.9531 40.9632 38.9689 40.883 38.9688Z" fill="#212D55"/>
<path d="M34.4948 38.9688C34.3335 38.9688 34.1789 38.9047 34.0648 38.7907C33.9508 38.6766 33.8867 38.522 33.8867 38.3607V15.1802C33.8867 15.0189 33.9508 14.8642 34.0648 14.7502C34.1789 14.6362 34.3335 14.5721 34.4948 14.5721C34.6561 14.5721 34.8108 14.6362 34.9248 14.7502C35.0389 14.8642 35.1029 15.0189 35.1029 15.1802V38.3607C35.1029 38.522 35.0389 38.6766 34.9248 38.7907C34.8108 38.9047 34.6561 38.9688 34.4948 38.9688Z" fill="#212D55"/>
<path d="M3.17842 38.9688C3.01714 38.9688 2.86247 38.9047 2.74842 38.7907C2.63438 38.6766 2.57031 38.522 2.57031 38.3607V19.4212C2.57031 19.2599 2.63438 19.1052 2.74842 18.9912C2.86247 18.8771 3.01714 18.813 3.17842 18.813H15.6696C15.8308 18.813 15.9855 18.8771 16.0996 18.9912C16.2136 19.1052 16.2777 19.2599 16.2777 19.4212C16.2777 19.5824 16.2136 19.7371 16.0996 19.8512C15.9855 19.9652 15.8308 20.0293 15.6696 20.0293H3.78653V38.3607C3.78653 38.522 3.72246 38.6766 3.60842 38.7907C3.49438 38.9047 3.3397 38.9688 3.17842 38.9688Z" fill="#212D55"/>
<path d="M6.52924 22.365H5.23701C5.07573 22.365 4.92106 22.301 4.80702 22.1869C4.69297 22.0729 4.62891 21.9182 4.62891 21.7569C4.62891 21.5956 4.69297 21.441 4.80702 21.3269C4.92106 21.2129 5.07573 21.1488 5.23701 21.1488H6.52924C6.69052 21.1488 6.8452 21.2129 6.95924 21.3269C7.07328 21.441 7.13735 21.5956 7.13735 21.7569C7.13735 21.9182 7.07328 22.0729 6.95924 22.1869C6.8452 22.301 6.69052 22.365 6.52924 22.365Z" fill="#212D55"/>
<path d="M10.0728 22.365H8.77998C8.6187 22.365 8.46403 22.301 8.34999 22.1869C8.23594 22.0729 8.17188 21.9182 8.17188 21.7569C8.17188 21.5956 8.23594 21.441 8.34999 21.3269C8.46403 21.2129 8.6187 21.1488 8.77998 21.1488H10.0728C10.2341 21.1488 10.3888 21.2129 10.5028 21.3269C10.6169 21.441 10.6809 21.5956 10.6809 21.7569C10.6809 21.9182 10.6169 22.0729 10.5028 22.1869C10.3888 22.301 10.2341 22.365 10.0728 22.365Z" fill="#212D55"/>
<path d="M13.6152 22.365H12.323C12.1617 22.365 12.007 22.301 11.893 22.1869C11.7789 22.0729 11.7148 21.9182 11.7148 21.7569C11.7148 21.5956 11.7789 21.441 11.893 21.3269C12.007 21.2129 12.1617 21.1488 12.323 21.1488H13.6152C13.7765 21.1488 13.9311 21.2129 14.0452 21.3269C14.1592 21.441 14.2233 21.5956 14.2233 21.7569C14.2233 21.9182 14.1592 22.0729 14.0452 22.1869C13.9311 22.301 13.7765 22.365 13.6152 22.365Z" fill="#212D55"/>
<path d="M6.52924 25.2188H5.23701C5.07573 25.2188 4.92106 25.1548 4.80702 25.0407C4.69297 24.9267 4.62891 24.772 4.62891 24.6107C4.62891 24.4495 4.69297 24.2948 4.80702 24.1807C4.92106 24.0667 5.07573 24.0026 5.23701 24.0026H6.52924C6.69052 24.0026 6.8452 24.0667 6.95924 24.1807C7.07328 24.2948 7.13735 24.4495 7.13735 24.6107C7.13735 24.772 7.07328 24.9267 6.95924 25.0407C6.8452 25.1548 6.69052 25.2188 6.52924 25.2188Z" fill="#212D55"/>
<path d="M10.0728 25.2188H8.77998C8.6187 25.2188 8.46403 25.1548 8.34999 25.0407C8.23594 24.9267 8.17188 24.772 8.17188 24.6107C8.17188 24.4495 8.23594 24.2948 8.34999 24.1807C8.46403 24.0667 8.6187 24.0026 8.77998 24.0026H10.0728C10.2341 24.0026 10.3888 24.0667 10.5028 24.1807C10.6169 24.2948 10.6809 24.4495 10.6809 24.6107C10.6809 24.772 10.6169 24.9267 10.5028 25.0407C10.3888 25.1548 10.2341 25.2188 10.0728 25.2188Z" fill="#212D55"/>
<path d="M13.6152 25.2188H12.323C12.1617 25.2188 12.007 25.1548 11.893 25.0407C11.7789 24.9267 11.7148 24.772 11.7148 24.6107C11.7148 24.4495 11.7789 24.2948 11.893 24.1807C12.007 24.0667 12.1617 24.0026 12.323 24.0026H13.6152C13.7765 24.0026 13.9311 24.0667 14.0452 24.1807C14.1592 24.2948 14.2233 24.4495 14.2233 24.6107C14.2233 24.772 14.1592 24.9267 14.0452 25.0407C13.9311 25.1548 13.7765 25.2188 13.6152 25.2188Z" fill="#212D55"/>
<path d="M6.52924 28.0721H5.23701C5.07573 28.0721 4.92106 28.008 4.80702 27.894C4.69297 27.78 4.62891 27.6253 4.62891 27.464C4.62891 27.3027 4.69297 27.1481 4.80702 27.034C4.92106 26.92 5.07573 26.8559 5.23701 26.8559H6.52924C6.69052 26.8559 6.8452 26.92 6.95924 27.034C7.07328 27.1481 7.13735 27.3027 7.13735 27.464C7.13735 27.6253 7.07328 27.78 6.95924 27.894C6.8452 28.008 6.69052 28.0721 6.52924 28.0721Z" fill="#212D55"/>
<path d="M10.0728 28.0721H8.77998C8.6187 28.0721 8.46403 28.008 8.34999 27.894C8.23594 27.78 8.17188 27.6253 8.17188 27.464C8.17188 27.3027 8.23594 27.1481 8.34999 27.034C8.46403 26.92 8.6187 26.8559 8.77998 26.8559H10.0728C10.2341 26.8559 10.3888 26.92 10.5028 27.034C10.6169 27.1481 10.6809 27.3027 10.6809 27.464C10.6809 27.6253 10.6169 27.78 10.5028 27.894C10.3888 28.008 10.2341 28.0721 10.0728 28.0721Z" fill="#212D55"/>
<path d="M13.6152 28.0721H12.323C12.1617 28.0721 12.007 28.008 11.893 27.894C11.7789 27.78 11.7148 27.6253 11.7148 27.464C11.7148 27.3027 11.7789 27.1481 11.893 27.034C12.007 26.92 12.1617 26.8559 12.323 26.8559H13.6152C13.7765 26.8559 13.9311 26.92 14.0452 27.034C14.1592 27.1481 14.2233 27.3027 14.2233 27.464C14.2233 27.6253 14.1592 27.78 14.0452 27.894C13.9311 28.008 13.7765 28.0721 13.6152 28.0721Z" fill="#212D55"/>
<path d="M6.52924 30.9259H5.23701C5.07573 30.9259 4.92106 30.8619 4.80702 30.7478C4.69297 30.6338 4.62891 30.4791 4.62891 30.3178C4.62891 30.1565 4.69297 30.0019 4.80702 29.8878C4.92106 29.7738 5.07573 29.7097 5.23701 29.7097H6.52924C6.69052 29.7097 6.8452 29.7738 6.95924 29.8878C7.07328 30.0019 7.13735 30.1565 7.13735 30.3178C7.13735 30.4791 7.07328 30.6338 6.95924 30.7478C6.8452 30.8619 6.69052 30.9259 6.52924 30.9259Z" fill="#212D55"/>
<path d="M10.0728 30.9259H8.77998C8.6187 30.9259 8.46403 30.8619 8.34999 30.7478C8.23594 30.6338 8.17188 30.4791 8.17188 30.3178C8.17188 30.1565 8.23594 30.0019 8.34999 29.8878C8.46403 29.7738 8.6187 29.7097 8.77998 29.7097H10.0728C10.2341 29.7097 10.3888 29.7738 10.5028 29.8878C10.6169 30.0019 10.6809 30.1565 10.6809 30.3178C10.6809 30.4791 10.6169 30.6338 10.5028 30.7478C10.3888 30.8619 10.2341 30.9259 10.0728 30.9259Z" fill="#212D55"/>
<path d="M13.6152 30.9259H12.323C12.1617 30.9259 12.007 30.8619 11.893 30.7478C11.7789 30.6338 11.7148 30.4791 11.7148 30.3178C11.7148 30.1565 11.7789 30.0019 11.893 29.8878C12.007 29.7738 12.1617 29.7097 12.323 29.7097H13.6152C13.7765 29.7097 13.9311 29.7738 14.0452 29.8878C14.1592 30.0019 14.2233 30.1565 14.2233 30.3178C14.2233 30.4791 14.1592 30.6338 14.0452 30.7478C13.9311 30.8619 13.7765 30.9259 13.6152 30.9259Z" fill="#212D55"/>
<path d="M6.52924 33.7798H5.23701C5.07573 33.7798 4.92106 33.7157 4.80702 33.6017C4.69297 33.4877 4.62891 33.333 4.62891 33.1717C4.62891 33.0104 4.69297 32.8558 4.80702 32.7417C4.92106 32.6277 5.07573 32.5636 5.23701 32.5636H6.52924C6.69052 32.5636 6.8452 32.6277 6.95924 32.7417C7.07328 32.8558 7.13735 33.0104 7.13735 33.1717C7.13735 33.333 7.07328 33.4877 6.95924 33.6017C6.8452 33.7157 6.69052 33.7798 6.52924 33.7798Z" fill="#212D55"/>
<path d="M10.0728 33.7798H8.77998C8.6187 33.7798 8.46403 33.7157 8.34999 33.6017C8.23594 33.4877 8.17188 33.333 8.17188 33.1717C8.17188 33.0104 8.23594 32.8558 8.34999 32.7417C8.46403 32.6277 8.6187 32.5636 8.77998 32.5636H10.0728C10.2341 32.5636 10.3888 32.6277 10.5028 32.7417C10.6169 32.8558 10.6809 33.0104 10.6809 33.1717C10.6809 33.333 10.6169 33.4877 10.5028 33.6017C10.3888 33.7157 10.2341 33.7798 10.0728 33.7798Z" fill="#212D55"/>
<path d="M13.6152 33.7798H12.323C12.1617 33.7798 12.007 33.7157 11.893 33.6017C11.7789 33.4877 11.7148 33.333 11.7148 33.1717C11.7148 33.0104 11.7789 32.8558 11.893 32.7417C12.007 32.6277 12.1617 32.5636 12.323 32.5636H13.6152C13.7765 32.5636 13.9311 32.6277 14.0452 32.7417C14.1592 32.8558 14.2233 33.0104 14.2233 33.1717C14.2233 33.333 14.1592 33.4877 14.0452 33.6017C13.9311 33.7157 13.7765 33.7798 13.6152 33.7798Z" fill="#212D55"/>
<path d="M6.52924 36.6336H5.23701C5.07573 36.6336 4.92106 36.5696 4.80702 36.4555C4.69297 36.3415 4.62891 36.1868 4.62891 36.0255C4.62891 35.8642 4.69297 35.7096 4.80702 35.5955C4.92106 35.4815 5.07573 35.4174 5.23701 35.4174H6.52924C6.69052 35.4174 6.8452 35.4815 6.95924 35.5955C7.07328 35.7096 7.13735 35.8642 7.13735 36.0255C7.13735 36.1868 7.07328 36.3415 6.95924 36.4555C6.8452 36.5696 6.69052 36.6336 6.52924 36.6336Z" fill="#212D55"/>
<path d="M10.0728 36.6336H8.77998C8.6187 36.6336 8.46403 36.5696 8.34999 36.4555C8.23594 36.3415 8.17188 36.1868 8.17188 36.0255C8.17188 35.8642 8.23594 35.7096 8.34999 35.5955C8.46403 35.4815 8.6187 35.4174 8.77998 35.4174H10.0728C10.2341 35.4174 10.3888 35.4815 10.5028 35.5955C10.6169 35.7096 10.6809 35.8642 10.6809 36.0255C10.6809 36.1868 10.6169 36.3415 10.5028 36.4555C10.3888 36.5696 10.2341 36.6336 10.0728 36.6336Z" fill="#212D55"/>
<path d="M13.6152 36.6336H12.323C12.1617 36.6336 12.007 36.5696 11.893 36.4555C11.7789 36.3415 11.7148 36.1868 11.7148 36.0255C11.7148 35.8642 11.7789 35.7096 11.893 35.5955C12.007 35.4815 12.1617 35.4174 12.323 35.4174H13.6152C13.7765 35.4174 13.9311 35.4815 14.0452 35.5955C14.1592 35.7096 14.2233 35.8642 14.2233 36.0255C14.2233 36.1868 14.1592 36.3415 14.0452 36.4555C13.9311 36.5696 13.7765 36.6336 13.6152 36.6336Z" fill="#212D55"/>
<path d="M20.6159 8.11945C20.4546 8.11945 20.3 8.05538 20.1859 7.94134C20.0719 7.8273 20.0078 7.67263 20.0078 7.51135V6.36385C20.0078 6.20257 20.0719 6.04789 20.1859 5.93385C20.3 5.81981 20.4546 5.75574 20.6159 5.75574C20.7772 5.75574 20.9319 5.81981 21.0459 5.93385C21.16 6.04789 21.224 6.20257 21.224 6.36385V7.51135C21.224 7.67263 21.16 7.8273 21.0459 7.94134C20.9319 8.05538 20.7772 8.11945 20.6159 8.11945Z" fill="#212D55"/>
<path d="M17.8425 8.82667C17.6812 8.82667 17.5265 8.7626 17.4125 8.64856C17.2984 8.53452 17.2344 8.37984 17.2344 8.21856V7.07106C17.2344 6.90978 17.2984 6.7551 17.4125 6.64106C17.5265 6.52702 17.6812 6.46295 17.8425 6.46295C18.0038 6.46295 18.1584 6.52702 18.2725 6.64106C18.3865 6.7551 18.4506 6.90978 18.4506 7.07106V8.21856C18.4506 8.37984 18.3865 8.53452 18.2725 8.64856C18.1584 8.7626 18.0038 8.82667 17.8425 8.82667Z" fill="#212D55"/>
<path d="M20.6159 12.6937C20.4546 12.6937 20.3 12.6296 20.1859 12.5156C20.0719 12.4015 20.0078 12.2468 20.0078 12.0856V10.9381C20.0078 10.7768 20.0719 10.6221 20.1859 10.5081C20.3 10.394 20.4546 10.33 20.6159 10.33C20.7772 10.33 20.9319 10.394 21.0459 10.5081C21.16 10.6221 21.224 10.7768 21.224 10.9381V12.0856C21.224 12.2468 21.16 12.4015 21.0459 12.5156C20.9319 12.6296 20.7772 12.6937 20.6159 12.6937Z" fill="#212D55"/>
<path d="M17.8425 13.4009C17.6812 13.4009 17.5265 13.3368 17.4125 13.2228C17.2984 13.1087 17.2344 12.9541 17.2344 12.7928V11.6453C17.2344 11.484 17.2984 11.3293 17.4125 11.2153C17.5265 11.1012 17.6812 11.0372 17.8425 11.0372C18.0038 11.0372 18.1584 11.1012 18.2725 11.2153C18.3865 11.3293 18.4506 11.484 18.4506 11.6453V12.7928C18.4506 12.9541 18.3865 13.1087 18.2725 13.2228C18.1584 13.3368 18.0038 13.4009 17.8425 13.4009Z" fill="#212D55"/>
<path d="M20.6159 17.2703C20.4546 17.2703 20.3 17.2062 20.1859 17.0921C20.0719 16.9781 20.0078 16.8234 20.0078 16.6622V15.5122C20.0078 15.3509 20.0719 15.1963 20.1859 15.0822C20.3 14.9682 20.4546 14.9041 20.6159 14.9041C20.7772 14.9041 20.9319 14.9682 21.0459 15.0822C21.16 15.1963 21.224 15.3509 21.224 15.5122V16.6622C21.224 16.8234 21.16 16.9781 21.0459 17.0921C20.9319 17.2062 20.7772 17.2703 20.6159 17.2703Z" fill="#212D55"/>
<path d="M17.8425 17.975C17.6812 17.975 17.5265 17.911 17.4125 17.7969C17.2984 17.6829 17.2344 17.5282 17.2344 17.3669V16.2194C17.2344 16.0582 17.2984 15.9035 17.4125 15.7894C17.5265 15.6754 17.6812 15.6113 17.8425 15.6113C18.0038 15.6113 18.1584 15.6754 18.2725 15.7894C18.3865 15.9035 18.4506 16.0582 18.4506 16.2194V17.3669C18.4506 17.5282 18.3865 17.6829 18.2725 17.7969C18.1584 17.911 18.0038 17.975 17.8425 17.975Z" fill="#212D55"/>
<path d="M20.6159 21.8414C20.4546 21.8414 20.3 21.7774 20.1859 21.6633C20.0719 21.5493 20.0078 21.3946 20.0078 21.2333V20.0858C20.0078 19.9246 20.0719 19.7699 20.1859 19.6558C20.3 19.5418 20.4546 19.4777 20.6159 19.4777C20.7772 19.4777 20.9319 19.5418 21.0459 19.6558C21.16 19.7699 21.224 19.9246 21.224 20.0858V21.2333C21.224 21.3946 21.16 21.5493 21.0459 21.6633C20.9319 21.7774 20.7772 21.8414 20.6159 21.8414Z" fill="#212D55"/>
<path d="M17.8425 22.5486C17.6812 22.5486 17.5265 22.4846 17.4125 22.3705C17.2984 22.2565 17.2344 22.1018 17.2344 21.9405V20.793C17.2344 20.6318 17.2984 20.4771 17.4125 20.363C17.5265 20.249 17.6812 20.1849 17.8425 20.1849C18.0038 20.1849 18.1584 20.249 18.2725 20.363C18.3865 20.4771 18.4506 20.6318 18.4506 20.793V21.9405C18.4506 22.1018 18.3865 22.2565 18.2725 22.3705C18.1584 22.4846 18.0038 22.5486 17.8425 22.5486Z" fill="#212D55"/>
<path d="M20.6159 26.4156C20.4546 26.4156 20.3 26.3515 20.1859 26.2375C20.0719 26.1234 20.0078 25.9688 20.0078 25.8075V24.66C20.0078 24.4987 20.0719 24.344 20.1859 24.23C20.3 24.116 20.4546 24.0519 20.6159 24.0519C20.7772 24.0519 20.9319 24.116 21.0459 24.23C21.16 24.344 21.224 24.4987 21.224 24.66V25.8075C21.224 25.9688 21.16 26.1234 21.0459 26.2375C20.9319 26.3515 20.7772 26.4156 20.6159 26.4156Z" fill="#212D55"/>
<path d="M17.8425 27.1217C17.6812 27.1217 17.5265 27.0576 17.4125 26.9435C17.2984 26.8295 17.2344 26.6748 17.2344 26.5135V25.3673C17.2344 25.206 17.2984 25.0513 17.4125 24.9373C17.5265 24.8232 17.6812 24.7592 17.8425 24.7592C18.0038 24.7592 18.1584 24.8232 18.2725 24.9373C18.3865 25.0513 18.4506 25.206 18.4506 25.3673V26.5135C18.4506 26.6748 18.3865 26.8295 18.2725 26.9435C18.1584 27.0576 18.0038 27.1217 17.8425 27.1217Z" fill="#212D55"/>
<path d="M20.6159 30.9898C20.4546 30.9898 20.3 30.9257 20.1859 30.8117C20.0719 30.6977 20.0078 30.543 20.0078 30.3817V29.2342C20.0078 29.0729 20.0719 28.9183 20.1859 28.8042C20.3 28.6902 20.4546 28.6261 20.6159 28.6261C20.7772 28.6261 20.9319 28.6902 21.0459 28.8042C21.16 28.9183 21.224 29.0729 21.224 29.2342V30.3817C21.224 30.543 21.16 30.6977 21.0459 30.8117C20.9319 30.9257 20.7772 30.9898 20.6159 30.9898Z" fill="#212D55"/>
<path d="M17.8425 31.697C17.6812 31.697 17.5265 31.633 17.4125 31.5189C17.2984 31.4049 17.2344 31.2502 17.2344 31.0889V29.9414C17.2344 29.7801 17.2984 29.6255 17.4125 29.5114C17.5265 29.3974 17.6812 29.3333 17.8425 29.3333C18.0038 29.3333 18.1584 29.3974 18.2725 29.5114C18.3865 29.6255 18.4506 29.7801 18.4506 29.9414V31.0889C18.4506 31.2502 18.3865 31.4049 18.2725 31.5189C18.1584 31.633 18.0038 31.697 17.8425 31.697Z" fill="#212D55"/>
<path d="M20.6159 35.5634C20.4546 35.5634 20.3 35.4993 20.1859 35.3853C20.0719 35.2712 20.0078 35.1165 20.0078 34.9553V33.8108C20.0078 33.6495 20.0719 33.4949 20.1859 33.3808C20.3 33.2668 20.4546 33.2027 20.6159 33.2027C20.7772 33.2027 20.9319 33.2668 21.0459 33.3808C21.16 33.4949 21.224 33.6495 21.224 33.8108V34.9583C21.2232 35.1191 21.1588 35.273 21.0448 35.3863C20.9309 35.4997 20.7767 35.5634 20.6159 35.5634Z" fill="#212D55"/>
<path d="M17.8425 36.2713C17.6812 36.2713 17.5265 36.2072 17.4125 36.0931C17.2984 35.9791 17.2344 35.8244 17.2344 35.6631V34.515C17.2344 34.3538 17.2984 34.1991 17.4125 34.085C17.5265 33.971 17.6812 33.9069 17.8425 33.9069C18.0038 33.9069 18.1584 33.971 18.2725 34.085C18.3865 34.1991 18.4506 34.3538 18.4506 34.515V35.6625C18.4507 35.7424 18.435 35.8216 18.4045 35.8954C18.374 35.9693 18.3292 36.0364 18.2727 36.0929C18.2162 36.1495 18.1492 36.1943 18.0753 36.2249C18.0015 36.2555 17.9224 36.2713 17.8425 36.2713Z" fill="#212D55"/>
<path d="M24.8112 7.54054C24.65 7.54054 24.4953 7.47647 24.3812 7.36243C24.2672 7.24839 24.2031 7.09371 24.2031 6.93243V5.78615C24.2031 5.62487 24.2672 5.47019 24.3812 5.35615C24.4953 5.24211 24.65 5.17804 24.8112 5.17804C24.9725 5.17804 25.1272 5.24211 25.2412 5.35615C25.3553 5.47019 25.4193 5.62487 25.4193 5.78615V6.93243C25.4193 7.09371 25.3553 7.24839 25.2412 7.36243C25.1272 7.47647 24.9725 7.54054 24.8112 7.54054Z" fill="#212D55"/>
<path d="M26.8659 8.31587C26.7046 8.31587 26.55 8.2518 26.4359 8.13776C26.3219 8.02372 26.2578 7.86904 26.2578 7.70776V6.56087C26.2578 6.39959 26.3219 6.24491 26.4359 6.13087C26.55 6.01683 26.7046 5.95276 26.8659 5.95276C27.0272 5.95276 27.1819 6.01683 27.2959 6.13087C27.41 6.24491 27.474 6.39959 27.474 6.56087V7.70837C27.4739 7.86954 27.4097 8.02406 27.2957 8.13797C27.1817 8.25188 27.0271 8.31587 26.8659 8.31587Z" fill="#212D55"/>
<path d="M28.9167 9.09059C28.7554 9.09059 28.6007 9.02652 28.4867 8.91248C28.3727 8.79843 28.3086 8.64376 28.3086 8.48248V7.33559C28.3086 7.17431 28.3727 7.01963 28.4867 6.90559C28.6007 6.79155 28.7554 6.72748 28.9167 6.72748C29.078 6.72748 29.2327 6.79155 29.3467 6.90559C29.4607 7.01963 29.5248 7.17431 29.5248 7.33559V8.48309C29.5247 8.64426 29.4605 8.79878 29.3465 8.91269C29.2325 9.0266 29.0779 9.09059 28.9167 9.09059Z" fill="#212D55"/>
<path d="M24.8112 12.1013C24.65 12.1013 24.4953 12.0373 24.3812 11.9232C24.2672 11.8092 24.2031 11.6545 24.2031 11.4932V10.3439C24.2031 10.1826 24.2672 10.0279 24.3812 9.91389C24.4953 9.79985 24.65 9.73578 24.8112 9.73578C24.9725 9.73578 25.1272 9.79985 25.2412 9.91389C25.3553 10.0279 25.4193 10.1826 25.4193 10.3439V11.4932C25.4193 11.6545 25.3553 11.8092 25.2412 11.9232C25.1272 12.0373 24.9725 12.1013 24.8112 12.1013Z" fill="#212D55"/>
<path d="M26.8659 12.8736C26.7046 12.8736 26.55 12.8095 26.4359 12.6955C26.3219 12.5815 26.2578 12.4268 26.2578 12.2655V11.1186C26.2578 10.9573 26.3219 10.8027 26.4359 10.6886C26.55 10.5746 26.7046 10.5105 26.8659 10.5105C27.0272 10.5105 27.1819 10.5746 27.2959 10.6886C27.41 10.8027 27.474 10.9573 27.474 11.1186V12.2655C27.474 12.4268 27.41 12.5815 27.2959 12.6955C27.1819 12.8095 27.0272 12.8736 26.8659 12.8736Z" fill="#212D55"/>
<path d="M28.9167 13.6484C28.7554 13.6484 28.6007 13.5843 28.4867 13.4703C28.3727 13.3562 28.3086 13.2016 28.3086 13.0403V11.8934C28.3086 11.7321 28.3727 11.5774 28.4867 11.4634C28.6007 11.3493 28.7554 11.2853 28.9167 11.2853C29.078 11.2853 29.2327 11.3493 29.3467 11.4634C29.4607 11.5774 29.5248 11.7321 29.5248 11.8934V13.0409C29.5247 13.2021 29.4605 13.3566 29.3465 13.4705C29.2325 13.5844 29.0779 13.6484 28.9167 13.6484Z" fill="#212D55"/>
<path d="M24.8112 16.6573C24.65 16.6573 24.4953 16.5932 24.3812 16.4792C24.2672 16.3651 24.2031 16.2105 24.2031 16.0492V14.8986C24.2031 14.7374 24.2672 14.5827 24.3812 14.4686C24.4953 14.3546 24.65 14.2905 24.8112 14.2905C24.9725 14.2905 25.1272 14.3546 25.2412 14.4686C25.3553 14.5827 25.4193 14.7374 25.4193 14.8986V16.0461C25.4197 16.1262 25.4043 16.2056 25.3739 16.2798C25.3436 16.3539 25.2988 16.4213 25.2423 16.4781C25.1858 16.5349 25.1186 16.58 25.0447 16.6107C24.9707 16.6415 24.8914 16.6573 24.8112 16.6573Z" fill="#212D55"/>
<path d="M26.8659 17.4321C26.7046 17.4321 26.55 17.368 26.4359 17.254C26.3219 17.1399 26.2578 16.9852 26.2578 16.824V15.6765C26.2578 15.5152 26.3219 15.3605 26.4359 15.2465C26.55 15.1324 26.7046 15.0684 26.8659 15.0684C27.0272 15.0684 27.1819 15.1324 27.2959 15.2465C27.41 15.3605 27.474 15.5152 27.474 15.6765V16.824C27.474 16.9852 27.41 17.1399 27.2959 17.254C27.1819 17.368 27.0272 17.4321 26.8659 17.4321Z" fill="#212D55"/>
<path d="M28.9167 18.2061C28.7554 18.2061 28.6007 18.1421 28.4867 18.028C28.3727 17.914 28.3086 17.7593 28.3086 17.598V16.4511C28.3086 16.2898 28.3727 16.1352 28.4867 16.0211C28.6007 15.9071 28.7554 15.843 28.9167 15.843C29.078 15.843 29.2327 15.9071 29.3467 16.0211C29.4607 16.1352 29.5248 16.2898 29.5248 16.4511V17.5986C29.5247 17.7598 29.4605 17.9143 29.3465 18.0282C29.2325 18.1421 29.0779 18.2061 28.9167 18.2061Z" fill="#212D55"/>
<path d="M24.8112 21.2151C24.65 21.2151 24.4953 21.151 24.3812 21.037C24.2672 20.9229 24.2031 20.7683 24.2031 20.607V19.4595C24.2031 19.2982 24.2672 19.1435 24.3812 19.0295C24.4953 18.9154 24.65 18.8514 24.8112 18.8514C24.9725 18.8514 25.1272 18.9154 25.2412 19.0295C25.3553 19.1435 25.4193 19.2982 25.4193 19.4595V20.607C25.4193 20.7683 25.3553 20.9229 25.2412 21.037C25.1272 21.151 24.9725 21.2151 24.8112 21.2151Z" fill="#212D55"/>
<path d="M26.8659 21.9898C26.7046 21.9898 26.55 21.9258 26.4359 21.8117C26.3219 21.6977 26.2578 21.543 26.2578 21.3817V20.2342C26.2578 20.0729 26.3219 19.9183 26.4359 19.8042C26.55 19.6902 26.7046 19.6261 26.8659 19.6261C27.0272 19.6261 27.1819 19.6902 27.2959 19.8042C27.41 19.9183 27.474 20.0729 27.474 20.2342V21.3817C27.474 21.543 27.41 21.6977 27.2959 21.8117C27.1819 21.9258 27.0272 21.9898 26.8659 21.9898Z" fill="#212D55"/>
<path d="M28.9167 22.7645C28.7554 22.7645 28.6007 22.7005 28.4867 22.5864C28.3727 22.4724 28.3086 22.3177 28.3086 22.1564V21.0089C28.3086 20.8476 28.3727 20.693 28.4867 20.5789C28.6007 20.4649 28.7554 20.4008 28.9167 20.4008C29.078 20.4008 29.2327 20.4649 29.3467 20.5789C29.4607 20.693 29.5248 20.8476 29.5248 21.0089V22.1564C29.5248 22.3177 29.4607 22.4724 29.3467 22.5864C29.2327 22.7005 29.078 22.7645 28.9167 22.7645Z" fill="#212D55"/>
<path d="M24.8112 25.7728C24.65 25.7728 24.4953 25.7087 24.3812 25.5947C24.2672 25.4806 24.2031 25.326 24.2031 25.1647V24.0202C24.2031 23.8589 24.2672 23.7043 24.3812 23.5902C24.4953 23.4762 24.65 23.4121 24.8112 23.4121C24.9725 23.4121 25.1272 23.4762 25.2412 23.5902C25.3553 23.7043 25.4193 23.8589 25.4193 24.0202V25.1677C25.4185 25.3285 25.3541 25.4824 25.2402 25.5957C25.1262 25.7091 24.972 25.7728 24.8112 25.7728Z" fill="#212D55"/>
<path d="M26.8659 26.5475C26.7046 26.5475 26.55 26.4835 26.4359 26.3694C26.3219 26.2554 26.2578 26.1007 26.2578 25.9394V24.7919C26.2578 24.6307 26.3219 24.476 26.4359 24.3619C26.55 24.2479 26.7046 24.1838 26.8659 24.1838C27.0272 24.1838 27.1819 24.2479 27.2959 24.3619C27.41 24.476 27.474 24.6307 27.474 24.7919V25.9394C27.474 26.1007 27.41 26.2554 27.2959 26.3694C27.1819 26.4835 27.0272 26.5475 26.8659 26.5475Z" fill="#212D55"/>
<path d="M28.9167 27.3223C28.7554 27.3223 28.6007 27.2582 28.4867 27.1442C28.3727 27.0301 28.3086 26.8754 28.3086 26.7142V25.5667C28.3086 25.4054 28.3727 25.2507 28.4867 25.1367C28.6007 25.0226 28.7554 24.9586 28.9167 24.9586C29.078 24.9586 29.2327 25.0226 29.3467 25.1367C29.4607 25.2507 29.5248 25.4054 29.5248 25.5667V26.7142C29.5248 26.8754 29.4607 27.0301 29.3467 27.1442C29.2327 27.2582 29.078 27.3223 28.9167 27.3223Z" fill="#212D55"/>
<path d="M24.8112 30.3306C24.65 30.3306 24.4953 30.2666 24.3812 30.1525C24.2672 30.0385 24.2031 29.8838 24.2031 29.7225V28.575C24.2031 28.4137 24.2672 28.2591 24.3812 28.145C24.4953 28.031 24.65 27.9669 24.8112 27.9669C24.9725 27.9669 25.1272 28.031 25.2412 28.145C25.3553 28.2591 25.4193 28.4137 25.4193 28.575V29.7225C25.4193 29.8838 25.3553 30.0385 25.2412 30.1525C25.1272 30.2666 24.9725 30.3306 24.8112 30.3306Z" fill="#212D55"/>
<path d="M26.8659 31.1054C26.7046 31.1054 26.55 31.0413 26.4359 30.9272C26.3219 30.8132 26.2578 30.6585 26.2578 30.4972V29.3497C26.2578 29.1885 26.3219 29.0338 26.4359 28.9197C26.55 28.8057 26.7046 28.7416 26.8659 28.7416C27.0272 28.7416 27.1819 28.8057 27.2959 28.9197C27.41 29.0338 27.474 29.1885 27.474 29.3497V30.4972C27.474 30.6585 27.41 30.8132 27.2959 30.9272C27.1819 31.0413 27.0272 31.1054 26.8659 31.1054Z" fill="#212D55"/>
<path d="M28.9167 31.8801C28.7554 31.8801 28.6007 31.816 28.4867 31.702C28.3727 31.5879 28.3086 31.4332 28.3086 31.272V30.1245C28.3086 29.9632 28.3727 29.8085 28.4867 29.6945C28.6007 29.5804 28.7554 29.5164 28.9167 29.5164C29.078 29.5164 29.2327 29.5804 29.3467 29.6945C29.4607 29.8085 29.5248 29.9632 29.5248 30.1245V31.272C29.5248 31.4332 29.4607 31.5879 29.3467 31.702C29.2327 31.816 29.078 31.8801 28.9167 31.8801Z" fill="#212D55"/>
<path d="M24.8112 34.8884C24.65 34.8884 24.4953 34.8243 24.3812 34.7103C24.2672 34.5962 24.2031 34.4415 24.2031 34.2803V33.1328C24.2031 32.9715 24.2672 32.8168 24.3812 32.7028C24.4953 32.5887 24.65 32.5247 24.8112 32.5247C24.9725 32.5247 25.1272 32.5887 25.2412 32.7028C25.3553 32.8168 25.4193 32.9715 25.4193 33.1328V34.2803C25.4193 34.4415 25.3553 34.5962 25.2412 34.7103C25.1272 34.8243 24.9725 34.8884 24.8112 34.8884Z" fill="#212D55"/>
<path d="M26.8659 35.6631C26.7046 35.6631 26.55 35.599 26.4359 35.485C26.3219 35.3709 26.2578 35.2163 26.2578 35.055V33.9075C26.2578 33.7462 26.3219 33.5915 26.4359 33.4775C26.55 33.3634 26.7046 33.2994 26.8659 33.2994C27.0272 33.2994 27.1819 33.3634 27.2959 33.4775C27.41 33.5915 27.474 33.7462 27.474 33.9075V35.055C27.474 35.2163 27.41 35.3709 27.2959 35.485C27.1819 35.599 27.0272 35.6631 26.8659 35.6631Z" fill="#212D55"/>
<path d="M28.9167 36.4378C28.7554 36.4378 28.6007 36.3737 28.4867 36.2597C28.3727 36.1457 28.3086 35.991 28.3086 35.8297V34.6822C28.3086 34.5209 28.3727 34.3662 28.4867 34.2522C28.6007 34.1382 28.7554 34.0741 28.9167 34.0741C29.078 34.0741 29.2327 34.1382 29.3467 34.2522C29.4607 34.3662 29.5248 34.5209 29.5248 34.6822V35.8297C29.5248 35.991 29.4607 36.1457 29.3467 36.2597C29.2327 36.3737 29.078 36.4378 28.9167 36.4378Z" fill="#212D55"/>
<path d="M36.6081 20.4629C36.4468 20.4629 36.2922 20.3988 36.1781 20.2847C36.0641 20.1707 36 20.016 36 19.8547V19.2399C36 19.0787 36.0641 18.924 36.1781 18.8099C36.2922 18.6959 36.4468 18.6318 36.6081 18.6318C36.7694 18.6318 36.9241 18.6959 37.0381 18.8099C37.1521 18.924 37.2162 19.0787 37.2162 19.2399V19.8547C37.2162 20.016 37.1521 20.1707 37.0381 20.2847C36.9241 20.3988 36.7694 20.4629 36.6081 20.4629Z" fill="#212D55"/>
<path d="M38.6589 21.7508C38.4976 21.7508 38.3429 21.6867 38.2289 21.5727C38.1148 21.4587 38.0508 21.304 38.0508 21.1427V20.5279C38.0508 20.3666 38.1148 20.212 38.2289 20.0979C38.3429 19.9839 38.4976 19.9198 38.6589 19.9198C38.8202 19.9198 38.9748 19.9839 39.0889 20.0979C39.2029 20.212 39.267 20.3666 39.267 20.5279V21.1427C39.267 21.304 39.2029 21.4587 39.0889 21.5727C38.9748 21.6867 38.8202 21.7508 38.6589 21.7508Z" fill="#212D55"/>
<path d="M36.6081 23.4657C36.4468 23.4657 36.2922 23.4017 36.1781 23.2876C36.0641 23.1736 36 23.0189 36 22.8576V22.2434C36 22.0821 36.0641 21.9275 36.1781 21.8134C36.2922 21.6994 36.4468 21.6353 36.6081 21.6353C36.7694 21.6353 36.9241 21.6994 37.0381 21.8134C37.1521 21.9275 37.2162 22.0821 37.2162 22.2434V22.8582C37.2161 23.0194 37.1519 23.1739 37.0379 23.2878C36.9239 23.4017 36.7693 23.4657 36.6081 23.4657Z" fill="#212D55"/>
<path d="M38.6589 24.7536C38.4976 24.7536 38.3429 24.6896 38.2289 24.5755C38.1148 24.4615 38.0508 24.3068 38.0508 24.1455V23.5338C38.0508 23.3725 38.1148 23.2178 38.2289 23.1038C38.3429 22.9897 38.4976 22.9257 38.6589 22.9257C38.8202 22.9257 38.9748 22.9897 39.0889 23.1038C39.2029 23.2178 39.267 23.3725 39.267 23.5338V24.1486C39.2662 24.3093 39.2018 24.4632 39.0878 24.5766C38.9739 24.69 38.8196 24.7536 38.6589 24.7536Z" fill="#212D55"/>
<path d="M36.6081 26.4691C36.4468 26.4691 36.2922 26.4051 36.1781 26.291C36.0641 26.177 36 26.0223 36 25.861V25.2462C36 25.0849 36.0641 24.9303 36.1781 24.8162C36.2922 24.7022 36.4468 24.6381 36.6081 24.6381C36.7694 24.6381 36.9241 24.7022 37.0381 24.8162C37.1521 24.9303 37.2162 25.0849 37.2162 25.2462V25.861C37.2162 26.0223 37.1521 26.177 37.0381 26.291C36.9241 26.4051 36.7694 26.4691 36.6081 26.4691Z" fill="#212D55"/>
<path d="M38.6589 27.7571C38.4976 27.7571 38.3429 27.693 38.2289 27.579C38.1148 27.4649 38.0508 27.3103 38.0508 27.149V26.5342C38.0508 26.3729 38.1148 26.2182 38.2289 26.1042C38.3429 25.9902 38.4976 25.9261 38.6589 25.9261C38.8202 25.9261 38.9748 25.9902 39.0889 26.1042C39.2029 26.2182 39.267 26.3729 39.267 26.5342V27.149C39.267 27.3103 39.2029 27.4649 39.0889 27.579C38.9748 27.693 38.8202 27.7571 38.6589 27.7571Z" fill="#212D55"/>
<path d="M36.6081 29.4725C36.4468 29.4725 36.2922 29.4085 36.1781 29.2944C36.0641 29.1804 36 29.0257 36 28.8644V28.2496C36 28.0884 36.0641 27.9337 36.1781 27.8197C36.2922 27.7056 36.4468 27.6415 36.6081 27.6415C36.7694 27.6415 36.9241 27.7056 37.0381 27.8197C37.1521 27.9337 37.2162 28.0884 37.2162 28.2496V28.8644C37.2162 29.0257 37.1521 29.1804 37.0381 29.2944C36.9241 29.4085 36.7694 29.4725 36.6081 29.4725Z" fill="#212D55"/>
<path d="M38.6589 30.7599C38.4976 30.7599 38.3429 30.6958 38.2289 30.5818C38.1148 30.4678 38.0508 30.3131 38.0508 30.1518V29.537C38.0508 29.3757 38.1148 29.221 38.2289 29.107C38.3429 28.993 38.4976 28.9289 38.6589 28.9289C38.8202 28.9289 38.9748 28.993 39.0889 29.107C39.2029 29.221 39.267 29.3757 39.267 29.537V30.1518C39.267 30.3131 39.2029 30.4678 39.0889 30.5818C38.9748 30.6958 38.8202 30.7599 38.6589 30.7599Z" fill="#212D55"/>
<path d="M36.6081 32.473C36.4468 32.473 36.2922 32.4089 36.1781 32.2949C36.0641 32.1808 36 32.0262 36 31.8649V31.2525C36 31.0912 36.0641 30.9366 36.1781 30.8225C36.2922 30.7085 36.4468 30.6444 36.6081 30.6444C36.7694 30.6444 36.9241 30.7085 37.0381 30.8225C37.1521 30.9366 37.2162 31.0912 37.2162 31.2525V31.8649C37.2162 32.0262 37.1521 32.1808 37.0381 32.2949C36.9241 32.4089 36.7694 32.473 36.6081 32.473Z" fill="#212D55"/>
<path d="M38.6589 33.7634C38.4976 33.7634 38.3429 33.6993 38.2289 33.5853C38.1148 33.4712 38.0508 33.3166 38.0508 33.1553V32.5405C38.0508 32.3792 38.1148 32.2245 38.2289 32.1105C38.3429 31.9964 38.4976 31.9324 38.6589 31.9324C38.8202 31.9324 38.9748 31.9964 39.0889 32.1105C39.2029 32.2245 39.267 32.3792 39.267 32.5405V33.1553C39.267 33.3166 39.2029 33.4712 39.0889 33.5853C38.9748 33.6993 38.8202 33.7634 38.6589 33.7634Z" fill="#212D55"/>
<path d="M36.6081 35.4788C36.4468 35.4788 36.2922 35.4148 36.1781 35.3007C36.0641 35.1867 36 35.032 36 34.8707V34.2559C36 34.0947 36.0641 33.94 36.1781 33.8259C36.2922 33.7119 36.4468 33.6478 36.6081 33.6478C36.7694 33.6478 36.9241 33.7119 37.0381 33.8259C37.1521 33.94 37.2162 34.0947 37.2162 34.2559V34.8707C37.2162 35.032 37.1521 35.1867 37.0381 35.3007C36.9241 35.4148 36.7694 35.4788 36.6081 35.4788Z" fill="#212D55"/>
<path d="M38.6589 36.7662C38.4976 36.7662 38.3429 36.7022 38.2289 36.5881C38.1148 36.4741 38.0508 36.3194 38.0508 36.1581V35.5433C38.0508 35.3821 38.1148 35.2274 38.2289 35.1134C38.3429 34.9993 38.4976 34.9352 38.6589 34.9352C38.8202 34.9352 38.9748 34.9993 39.0889 35.1134C39.2029 35.2274 39.267 35.3821 39.267 35.5433V36.1581C39.267 36.3194 39.2029 36.4741 39.0889 36.5881C38.9748 36.7022 38.8202 36.7662 38.6589 36.7662Z" fill="#212D55"/>
<path d="M42.7095 38.959H1.35811C1.19683 38.959 1.04215 38.8949 0.928111 38.7809C0.814068 38.6669 0.75 38.5122 0.75 38.3509C0.75 38.1896 0.814068 38.035 0.928111 37.9209C1.04215 37.8069 1.19683 37.7428 1.35811 37.7428H42.7095C42.8707 37.7428 43.0254 37.8069 43.1395 37.9209C43.2535 38.035 43.3176 38.1896 43.3176 38.3509C43.3176 38.5122 43.2535 38.6669 43.1395 38.7809C43.0254 38.8949 42.8707 38.959 42.7095 38.959Z" fill="#212D55"/>
</svg>
