<svg width="45" height="45" viewBox="0 0 45 45" fill="none" xmlns="http://www.w3.org/2000/svg">
<g clip-path="url(#clip0_360_6815)">
<path d="M24.7447 10.9187H16.6992V34.0814H19.3359V26.7389H24.7447C29.0318 26.7389 32.5195 23.2512 32.5195 18.9642V18.6933C32.5195 14.4065 29.0318 10.9187 24.7447 10.9187ZM29.8828 18.9643C29.8828 21.7974 27.5779 24.1023 24.7447 24.1023H19.3359V13.5554H24.7447C27.5779 13.5554 29.8828 15.8604 29.8828 18.6934V18.9643Z" fill="#212D55"/>
<path d="M38.41 6.59004C34.1602 2.34035 28.51 0 22.5 0C16.49 0 10.8398 2.34035 6.59004 6.59004C2.34044 10.8398 0 16.4901 0 22.5C0 28.5099 2.34044 34.1602 6.59013 38.4099C10.8398 42.6596 16.49 45 22.5 45C28.51 45 34.1602 42.6596 38.41 38.41C42.6596 34.1602 45 28.5099 45 22.5C45 16.4901 42.6596 10.8398 38.41 6.59004ZM36.5455 36.5455C32.7938 40.2971 27.8056 42.3633 22.5 42.3633C17.1943 42.3633 12.2063 40.2971 8.45455 36.5454C4.70285 32.7938 2.63672 27.8056 2.63672 22.5C2.63672 17.1944 4.70285 12.2063 8.45455 8.45446C12.2063 4.70285 17.1943 2.63672 22.5 2.63672C27.8056 2.63672 32.7938 4.70285 36.5455 8.45446C40.2971 12.2063 42.3633 17.1944 42.3633 22.5C42.3633 27.8056 40.2971 32.7938 36.5455 36.5455Z" fill="#212D55"/>
</g>
<defs>
<clipPath id="clip0_360_6815">
<rect width="45" height="45" fill="white"/>
</clipPath>
</defs>
</svg>
