<svg width="24" height="24" viewBox="0 0 24 24" fill="none" xmlns="http://www.w3.org/2000/svg">
<path d="M18.9657 14.8671C18.4744 14.3555 17.8817 14.082 17.2536 14.082C16.6306 14.082 16.0329 14.3505 15.5213 14.8621L13.9206 16.4576C13.7889 16.3867 13.6572 16.3209 13.5306 16.255C13.3482 16.1639 13.176 16.0777 13.0291 15.9866C11.5298 15.0343 10.1672 13.7933 8.86033 12.1875C8.22716 11.3872 7.80167 10.7135 7.49268 10.0297C7.90804 9.64979 8.29301 9.25469 8.66785 8.87479C8.80968 8.73296 8.95151 8.58607 9.09334 8.44424C10.1571 7.38051 10.1571 6.00273 9.09334 4.939L7.71049 3.55616C7.55347 3.39913 7.39138 3.23704 7.23942 3.07495C6.93549 2.7609 6.61638 2.43671 6.28713 2.13279C5.79579 1.64652 5.20821 1.38818 4.59023 1.38818C3.97226 1.38818 3.37454 1.64652 2.86801 2.13279C2.86294 2.13786 2.86294 2.13786 2.85788 2.14292L1.13565 3.88034C0.487286 4.52871 0.117514 5.31891 0.0364682 6.23574C-0.0851005 7.71482 0.350521 9.0926 0.684835 9.99424C1.50542 12.2078 2.73124 14.2593 4.55984 16.4576C6.77847 19.1068 9.44792 21.1988 12.4973 22.6728C13.6623 23.225 15.2174 23.8784 16.9548 23.9898C17.0612 23.9949 17.1726 24 17.2739 24C18.444 24 19.4267 23.5795 20.1966 22.7438C20.2017 22.7336 20.2118 22.7286 20.2169 22.7184C20.4803 22.3993 20.7842 22.1106 21.1033 21.8016C21.3211 21.5939 21.544 21.3761 21.7618 21.1482C22.2633 20.6264 22.5267 20.0186 22.5267 19.3956C22.5267 18.7675 22.2582 18.1647 21.7466 17.6581L18.9657 14.8671ZM20.7791 20.2009C20.7741 20.2009 20.7741 20.206 20.7791 20.2009C20.5816 20.4137 20.379 20.6062 20.1612 20.8189C19.8319 21.133 19.4976 21.4622 19.1835 21.832C18.6719 22.3791 18.0692 22.6374 17.279 22.6374C17.203 22.6374 17.1219 22.6374 17.046 22.6323C15.5415 22.5361 14.1435 21.9485 13.095 21.447C10.228 20.0591 7.7105 18.0887 5.6185 15.5915C3.89121 13.5096 2.73631 11.5848 1.97144 9.51809C1.50036 8.25682 1.32814 7.27414 1.40412 6.34718C1.45477 5.75453 1.68271 5.26319 2.10314 4.84276L3.83043 3.11547C4.07863 2.88247 4.34203 2.75583 4.60036 2.75583C4.91948 2.75583 5.17781 2.94832 5.3399 3.11041C5.34497 3.11547 5.35004 3.12054 5.3551 3.1256C5.66409 3.41433 5.95788 3.71319 6.26687 4.0323C6.42389 4.1944 6.58598 4.35649 6.74808 4.52364L8.13092 5.90649C8.66785 6.44342 8.66785 6.93982 8.13092 7.47675C7.98403 7.62365 7.84219 7.77054 7.6953 7.91237C7.26981 8.34799 6.86458 8.75322 6.42389 9.14832C6.41376 9.15845 6.40363 9.16352 6.39857 9.17365C5.96294 9.60927 6.04399 10.0348 6.13517 10.3235C6.14023 10.3387 6.1453 10.3539 6.15036 10.3691C6.51 11.2403 7.01654 12.0609 7.78648 13.0385L7.79154 13.0436C9.18958 14.7658 10.6636 16.1081 12.2896 17.1364C12.4973 17.2681 12.71 17.3745 12.9126 17.4758C13.095 17.567 13.2672 17.6531 13.4141 17.7442C13.4344 17.7544 13.4546 17.7696 13.4749 17.7797C13.6471 17.8658 13.8092 17.9063 13.9764 17.9063C14.3968 17.9063 14.6602 17.6429 14.7463 17.5568L16.4786 15.8245C16.6509 15.6523 16.9244 15.4446 17.2435 15.4446C17.5576 15.4446 17.8159 15.6421 17.9729 15.8143C17.978 15.8194 17.978 15.8194 17.9831 15.8245L20.7741 18.6155C21.2958 19.1322 21.2958 19.664 20.7791 20.2009Z" fill="#31BEF4"/>
<path d="M12.9691 5.70908C14.2963 5.93196 15.5018 6.56006 16.4642 7.52248C17.4266 8.4849 18.0497 9.69046 18.2776 11.0176C18.3333 11.3519 18.6221 11.5849 18.9513 11.5849C18.9918 11.5849 19.0273 11.5798 19.0678 11.5748C19.4427 11.514 19.6909 11.1594 19.6301 10.7846C19.3566 9.17886 18.5967 7.71497 17.4368 6.555C16.2768 5.39503 14.8129 4.63522 13.2072 4.36169C12.8324 4.30091 12.4828 4.54911 12.417 4.91888C12.3512 5.28866 12.5943 5.6483 12.9691 5.70908Z" fill="#31BEF4"/>
<path d="M23.9723 10.5871C23.5215 7.94303 22.2754 5.53698 20.3607 3.62227C18.446 1.70757 16.04 0.461487 13.3958 0.0106694C13.0261 -0.0551803 12.6766 0.198088 12.6107 0.567859C12.5499 0.942696 12.7981 1.29221 13.173 1.35806C15.5334 1.75822 17.6862 2.87767 19.3983 4.58469C21.1104 6.29679 22.2248 8.44957 22.6249 10.81C22.6807 11.1443 22.9694 11.3773 23.2986 11.3773C23.3392 11.3773 23.3746 11.3723 23.4151 11.3672C23.7849 11.3115 24.0382 10.9569 23.9723 10.5871Z" fill="#31BEF4"/>
</svg>
