<svg width="45" height="45" viewBox="0 0 45 45" fill="none" xmlns="http://www.w3.org/2000/svg">
<path d="M0.703125 39.375H44.2969C44.6857 39.375 45 39.0607 45 38.6719V29.5298V24.6115C45 23.0597 43.7372 21.7969 42.1854 21.7969H34.3216C34.0291 20.9827 33.2578 20.3955 32.3438 20.3955H29.5453C29.5404 20.3955 29.5362 20.3927 29.5312 20.3927C28.3683 20.3927 27.4219 19.4463 27.4219 18.2834V10.5469C27.4219 7.83352 25.2134 5.625 22.5 5.625C19.7866 5.625 17.5781 7.83352 17.5781 10.5469V18.2834C17.5781 19.4463 16.6317 20.3927 15.4688 20.3927C15.4638 20.3927 15.4596 20.3955 15.4547 20.3955H12.6562C11.7422 20.3955 10.9709 20.9827 10.6784 21.7969H2.81461C2.80828 21.7969 2.80266 21.8004 2.79633 21.8004C1.25227 21.8102 0 23.066 0 24.6115V29.5298V38.6719C0 39.0607 0.314297 39.375 0.703125 39.375ZM43.5938 35.8594H1.40625V30.233H43.5938V35.8594ZM1.40625 37.9688V37.2656H43.5938V37.9688H1.40625ZM18.9844 18.2834V10.5469C18.9844 8.60836 20.5615 7.03125 22.5 7.03125C24.4385 7.03125 26.0156 8.60836 26.0156 10.5469V18.2834C26.0156 20.212 27.5787 21.7814 29.5038 21.7962C29.5137 21.7969 29.5214 21.8018 29.5312 21.8018H32.3438C32.7319 21.8018 33.0469 22.1168 33.0469 22.5049V26.0177H11.9531V22.5049C11.9531 22.1168 12.2681 21.8018 12.6562 21.8018H15.4688C15.4786 21.8018 15.4863 21.7969 15.4962 21.7962C17.4213 21.7814 18.9844 20.212 18.9844 18.2834ZM2.8125 23.2052C2.81602 23.2052 2.81953 23.2031 2.82305 23.2031H10.5469V26.7209C10.5469 27.1097 10.8612 27.424 11.25 27.424H33.75C34.1388 27.424 34.4531 27.1097 34.4531 26.7209V23.2031H42.1854C42.9623 23.2031 43.5938 23.8345 43.5938 24.6115V28.8267H1.40625V24.6115C1.40625 23.8359 2.03695 23.2052 2.8125 23.2052Z" fill="#212D55"/>
<path d="M22.5 12.6556C23.663 12.6556 24.6094 11.7092 24.6094 10.5462C24.6094 9.38324 23.663 8.43683 22.5 8.43683C21.337 8.43683 20.3906 9.38324 20.3906 10.5462C20.3906 11.7092 21.337 12.6556 22.5 12.6556ZM22.5 9.84308C22.8881 9.84308 23.2031 10.1581 23.2031 10.5462C23.2031 10.9343 22.8881 11.2493 22.5 11.2493C22.1119 11.2493 21.7969 10.9343 21.7969 10.5462C21.7969 10.1581 22.1119 9.84308 22.5 9.84308Z" fill="#212D55"/>
</svg>
