<svg width="45" height="45" viewBox="0 0 45 45" fill="none" xmlns="http://www.w3.org/2000/svg">
<path d="M42.8909 35.8594H40.524L28.8741 11.1889L29.3875 9.39175C29.5192 8.93088 29.5552 8.44794 29.4934 7.97263C29.4316 7.49732 29.2732 7.03967 29.028 6.62781C28.7829 6.21594 28.4561 5.85856 28.0677 5.57762C27.6794 5.29668 27.2377 5.09812 26.7698 4.99414L25.9425 4.81028C25.0678 4.61689 24.1523 4.76431 23.3825 5.22251C22.6127 5.68072 22.0465 6.41521 21.7995 7.27631L20.0614 13.3594H18.6489L17.624 11.1889L18.1375 9.39175C18.2692 8.93088 18.3052 8.44794 18.2434 7.97263C18.1816 7.49732 18.0232 7.03967 17.778 6.62781C17.5329 6.21594 17.2061 5.85856 16.8177 5.57762C16.4294 5.29668 15.9877 5.09812 15.5198 4.99414L14.6693 4.80518C13.8 4.61446 12.8907 4.75956 12.1239 5.21136C11.3572 5.66316 10.7896 6.38822 10.5351 7.24107L1.43292 39.1832C1.40773 39.272 1.40028 39.365 1.41101 39.4567C1.42175 39.5485 1.45044 39.6372 1.49547 39.7179C1.5405 39.7986 1.60097 39.8696 1.67344 39.9268C1.7459 39.9841 1.82894 40.0266 1.91781 40.0518C2.00669 40.077 2.09965 40.0844 2.1914 40.0737C2.28315 40.063 2.37189 40.0343 2.45255 39.9892C2.53321 39.9442 2.60421 39.8837 2.6615 39.8113C2.71879 39.7388 2.76124 39.6558 2.78644 39.5669L3.83735 35.8594H13.6328L12.6836 39.1817C12.6582 39.2704 12.6506 39.3634 12.6611 39.4551C12.6716 39.5468 12.7001 39.6356 12.7449 39.7163C12.7897 39.7971 12.85 39.8682 12.9223 39.9256C12.9946 39.9831 13.0775 40.0257 13.1663 40.0511C13.2551 40.0765 13.348 40.0841 13.4398 40.0736C13.5315 40.0631 13.6203 40.0346 13.701 39.9898C13.7817 39.945 13.8528 39.8847 13.9103 39.8124C13.9677 39.7401 14.0103 39.6572 14.0357 39.5684L18.5581 23.74L26.0833 39.6754C26.1402 39.7959 26.2302 39.8977 26.3427 39.969C26.4553 40.0403 26.5858 40.0782 26.7191 40.0781H42.8909C43.0774 40.0781 43.2563 40.0041 43.3881 39.8722C43.52 39.7403 43.5941 39.5615 43.5941 39.375V36.5625C43.5941 36.376 43.52 36.1972 43.3881 36.0653C43.2563 35.9335 43.0774 35.8594 42.8909 35.8594ZM23.1517 7.66268C23.2997 7.14594 23.6394 6.70514 24.1013 6.43021C24.5632 6.15527 25.1126 6.0669 25.6374 6.18313L26.4647 6.36691C26.7454 6.4293 27.0105 6.54844 27.2435 6.717C27.4765 6.88557 27.6725 7.1 27.8196 7.34712C27.9667 7.59424 28.0617 7.86882 28.0988 8.15401C28.1359 8.43919 28.1143 8.72895 28.0353 9.00547L27.5949 10.5469H22.3276L23.1517 7.66268ZM11.8841 7.63948C12.0368 7.12786 12.3773 6.69289 12.8373 6.42182C13.2973 6.15075 13.8427 6.06364 14.3643 6.17794L15.2147 6.36691C15.4954 6.4293 15.7605 6.54844 15.9935 6.71701C16.2265 6.88558 16.4226 7.10002 16.5697 7.34715C16.7168 7.59428 16.8118 7.86888 16.8489 8.15407C16.8859 8.43927 16.8643 8.72903 16.7853 9.00556L16.345 10.5469H11.0249L11.8841 7.63948ZM6.62831 26.0156L7.42575 23.2031H17.2489L16.4453 26.0156H6.62831ZM16.0436 27.4219L15.24 30.2344H5.43195L6.22938 27.4219H16.0436ZM7.82442 21.7969L8.62185 18.9844H16.3123L17.6404 21.7969H7.82442ZM9.02061 17.5781L9.81804 14.7656H14.3204L15.6485 17.5781H9.02061ZM4.23602 34.4531L5.03345 31.6406H14.8383L14.0347 34.4531H4.23602ZM30.9378 38.6719H27.1646L15.4017 13.7623C15.3448 13.6418 15.2548 13.5399 15.1423 13.4686C15.0297 13.3973 14.8992 13.3594 14.7659 13.3594H10.2167L10.6155 11.9531H16.4298L28.1926 36.8628C28.2495 36.9833 28.3395 37.0851 28.4521 37.1564C28.5646 37.2278 28.6952 37.2656 28.8284 37.2656H30.9378V38.6719ZM32.3441 38.6719V36.5625C32.3441 36.376 32.27 36.1972 32.1381 36.0653C32.0063 35.9335 31.8274 35.8594 31.6409 35.8594H29.274L19.313 14.7656H25.5704L36.8594 38.6719H32.3441ZM42.1878 38.6719H38.4146L26.6517 13.7623C26.5948 13.6418 26.5049 13.5399 26.3923 13.4686C26.2797 13.3973 26.1492 13.3594 26.0159 13.3594H21.524L21.9258 11.9531H27.6798L39.4426 36.8628C39.4995 36.9833 39.5895 37.0851 39.7021 37.1564C39.8146 37.2278 39.9452 37.2656 40.0784 37.2656H42.1878V38.6719Z" fill="#212D55"/>
</svg>
