<svg width="45" height="45" viewBox="0 0 45 45" fill="none" xmlns="http://www.w3.org/2000/svg">
<g clip-path="url(#clip0_360_6768)">
<path d="M10.072 44.0901C9.57893 44.0901 9.08934 43.9363 8.67151 43.6341C7.89317 43.07 7.52959 42.1005 7.74142 41.1649L10.6364 28.4125L0.818484 19.8025C0.096801 19.1725 -0.178894 18.1747 0.117401 17.2618C0.413696 16.3506 1.21984 15.7055 2.1743 15.6173L15.1646 14.4379L20.3005 2.4189C20.6792 1.53585 21.5416 0.965576 22.4999 0.965576C23.4581 0.965576 24.3206 1.53585 24.6993 2.41684L29.8352 14.4379L42.8234 15.6173C43.7799 15.7034 44.586 16.3506 44.8823 17.2618C45.1786 18.173 44.9047 19.1725 44.183 19.8025L34.3651 28.4108L37.26 41.1628C37.4722 42.1005 37.1083 43.07 36.3303 43.6324C35.554 44.1948 34.5189 44.2381 33.7014 43.7468L22.4999 37.0528L11.2983 43.7505C10.9196 43.9754 10.4977 44.0901 10.072 44.0901ZM22.4999 34.1692C22.9256 34.1692 23.3472 34.2835 23.7263 34.5084L34.2978 40.8312L31.5655 28.795C31.3705 27.9384 31.6613 27.044 32.3233 26.4645L41.5936 18.3344L29.3287 17.2206C28.4457 17.1399 27.6862 16.5848 27.3412 15.7711L22.4999 4.42876L17.6527 15.7728C17.3114 16.581 16.552 17.1362 15.671 17.2168L3.40446 18.3306L12.6744 26.4607C13.3384 27.042 13.6289 27.9346 13.4321 28.7933L10.702 40.8291L21.2735 34.5084C21.6522 34.2835 22.0741 34.1692 22.4999 34.1692ZM15.0654 14.6703C15.0654 14.6703 15.0654 14.6724 15.0633 14.6741L15.0654 14.6703ZM29.9306 14.6649L29.9327 14.6686C29.9327 14.6666 29.9327 14.6666 29.9306 14.6649Z" fill="#212D55"/>
</g>
<defs>
<clipPath id="clip0_360_6768">
<rect width="45" height="45" fill="white"/>
</clipPath>
</defs>
</svg>
